<?xml version="1.0" encoding="UTF-8"?>
<!DOCTYPE svg PUBLIC "-//W3C//DTD SVG 1.1//EN" "http://www.w3.org/Graphics/SVG/1.1/DTD/svg11.dtd">
<svg xmlns="http://www.w3.org/2000/svg" version="1.1" width="675px" height="702px" style="shape-rendering:geometricPrecision; text-rendering:geometricPrecision; image-rendering:optimizeQuality; fill-rule:evenodd; clip-rule:evenodd" xmlns:xlink="http://www.w3.org/1999/xlink">
<g><path style="opacity:1" fill="#f9f9f9" d="M -0.5,-0.5 C 224.5,-0.5 449.5,-0.5 674.5,-0.5C 674.5,233.5 674.5,467.5 674.5,701.5C 449.5,701.5 224.5,701.5 -0.5,701.5C -0.5,467.5 -0.5,233.5 -0.5,-0.5 Z"/></g>
<g><path style="opacity:1" fill="#a37a30" d="M 319.5,16.5 C 321.607,15.5318 323.941,15.1984 326.5,15.5C 344.508,15.5002 362.508,15.8336 380.5,16.5C 389.533,16.7543 398.533,17.4209 407.5,18.5C 414.51,20.7947 421.844,21.7947 429.5,21.5C 435.196,23.5606 441.196,24.5606 447.5,24.5C 454.554,25.5775 461.554,26.9109 468.5,28.5C 470.515,29.9238 472.848,30.5905 475.5,30.5C 478.127,31.0916 480.794,31.4249 483.5,31.5C 485.102,33.0739 487.102,33.7406 489.5,33.5C 496.84,35.1684 504.173,36.8351 511.5,38.5C 513.515,39.9238 515.848,40.5905 518.5,40.5C 529.09,44.1154 539.757,47.782 550.5,51.5C 550.973,52.9063 551.973,53.573 553.5,53.5C 560.147,55.9973 566.814,58.4973 573.5,61C 582.527,64.8737 591.194,69.3737 599.5,74.5C 600.833,76.5 602.5,78.1667 604.5,79.5C 607.046,83.2588 609.046,87.2588 610.5,91.5C 610.427,93.0269 611.094,94.0269 612.5,94.5C 612.5,95.1667 612.5,95.8333 612.5,96.5C 612.427,98.0269 613.094,99.0269 614.5,99.5C 615.999,103.84 617.332,108.173 618.5,112.5C 618.427,114.027 619.094,115.027 620.5,115.5C 624.694,128.083 628.694,140.75 632.5,153.5C 632.565,156.428 633.232,159.095 634.5,161.5C 635.301,163.042 635.634,164.708 635.5,166.5C 635.723,170.162 636.723,173.495 638.5,176.5C 638.5,176.833 638.5,177.167 638.5,177.5C 638.41,180.152 639.076,182.485 640.5,184.5C 641.167,188.5 641.833,192.5 642.5,196.5C 643.621,204.733 645.288,212.733 647.5,220.5C 647.5,221.167 647.5,221.833 647.5,222.5C 647.5,224.5 647.5,226.5 647.5,228.5C 645.821,228.285 644.821,228.952 644.5,230.5C 640.358,209.719 636.525,188.719 633,167.5C 624.378,138.248 614.044,109.581 602,81.5C 601.329,80.7476 600.496,80.4142 599.5,80.5C 598.426,79.1154 597.093,77.9487 595.5,77C 558.155,57.5025 518.822,43.3359 477.5,34.5C 472.055,32.674 466.388,31.3407 460.5,30.5C 451.584,28.6505 442.584,27.3172 433.5,26.5C 429.1,24.8958 424.434,24.2291 419.5,24.5C 402.321,21.8422 384.988,20.5089 367.5,20.5C 355.345,19.5048 343.011,19.1714 330.5,19.5C 333.008,17.7629 336.008,16.9296 339.5,17C 332.842,16.5004 326.175,16.3337 319.5,16.5 Z"/></g>
<g><path style="opacity:1" fill="#c0a577" d="M 326.5,15.5 C 333.158,14.8337 339.992,14.5004 347,14.5C 358.369,14.3775 369.535,15.0442 380.5,16.5C 362.508,15.8336 344.508,15.5002 326.5,15.5 Z"/></g>
<g><path style="opacity:1" fill="#b99d6b" d="M 296.5,17.5 C 290.406,19.0943 284.072,19.761 277.5,19.5C 283.641,18.3639 289.974,17.6972 296.5,17.5 Z"/></g>
<g><path style="opacity:1" fill="#bea371" d="M 407.5,18.5 C 415.02,19.1139 422.354,20.1139 429.5,21.5C 421.844,21.7947 414.51,20.7947 407.5,18.5 Z"/></g>
<g><path style="opacity:1" fill="#c6af87" d="M 276.5,19.5 C 271.402,20.9573 266.069,21.624 260.5,21.5C 265.616,20.1937 270.949,19.527 276.5,19.5 Z"/></g>
<g><path style="opacity:1" fill="#d4aa4c" d="M 330.5,19.5 C 343.011,19.1714 355.345,19.5048 367.5,20.5C 343.827,20.4661 320.16,20.7995 296.5,21.5C 307.634,20.0358 318.968,19.3691 330.5,19.5 Z"/></g>
<g><path style="opacity:1" fill="#ecc05c" d="M 367.5,20.5 C 384.988,20.5089 402.321,21.8422 419.5,24.5C 423.964,25.6437 428.63,26.3104 433.5,26.5C 442.584,27.3172 451.584,28.6505 460.5,30.5C 465.801,32.8313 471.468,34.1646 477.5,34.5C 518.822,43.3359 558.155,57.5025 595.5,77C 597.093,77.9487 598.426,79.1154 599.5,80.5C 591.815,90.5185 582.815,99.1851 572.5,106.5C 570.628,104.396 568.295,103.063 565.5,102.5C 548.422,95.2879 531.756,87.6212 515.5,79.5C 502.561,75.1454 489.561,70.9788 476.5,67C 457.867,62.8402 439.2,59.0068 420.5,55.5C 375.607,48.7912 330.607,47.9579 285.5,53C 262.468,57.4963 239.468,61.8296 216.5,66C 195.207,73.1599 173.874,80.3266 152.5,87.5C 141.204,92.146 130.537,97.8126 120.5,104.5C 119.041,104.433 117.708,104.766 116.5,105.5C 108.667,98.5021 100.667,91.6688 92.5,85C 90.5359,83.549 89.2026,81.7157 88.5,79.5C 91.079,76.8652 94.079,74.6985 97.5,73C 103.452,70.0712 109.452,67.2379 115.5,64.5C 152.877,48.6581 191.543,37.1581 231.5,30C 239.155,28.6349 246.821,27.4683 254.5,26.5C 268.732,25.6369 282.732,23.9703 296.5,21.5C 320.16,20.7995 343.827,20.4661 367.5,20.5 Z"/></g>
<g><path style="opacity:1" fill="#c2a777" d="M 429.5,21.5 C 435.72,21.9569 441.72,22.9569 447.5,24.5C 441.196,24.5606 435.196,23.5606 429.5,21.5 Z"/></g>
<g><path style="opacity:1" fill="#b59864" d="M 256.5,22.5 C 244.733,25.1278 232.733,27.1278 220.5,28.5C 232.188,25.4409 244.188,23.4409 256.5,22.5 Z"/></g>
<g><path style="opacity:1" fill="#cda247" d="M 296.5,21.5 C 282.732,23.9703 268.732,25.6369 254.5,26.5C 268.253,23.9221 282.253,22.2554 296.5,21.5 Z"/></g>
<g><path style="opacity:1" fill="#caa145" d="M 419.5,24.5 C 424.434,24.2291 429.1,24.8958 433.5,26.5C 428.63,26.3104 423.964,25.6437 419.5,24.5 Z"/></g>
<g><path style="opacity:1" fill="#bda471" d="M 468.5,28.5 C 471.152,28.4095 473.485,29.0762 475.5,30.5C 472.848,30.5905 470.515,29.9238 468.5,28.5 Z"/></g>
<g><path style="opacity:1" fill="#ba9f6d" d="M 214.5,29.5 C 212.562,31.1628 210.228,31.8294 207.5,31.5C 209.515,30.0762 211.848,29.4095 214.5,29.5 Z"/></g>
<g><path style="opacity:1" fill="#ba9e6e" d="M 205.5,31.5 C 203.562,33.1628 201.228,33.8294 198.5,33.5C 200.515,32.0762 202.848,31.4095 205.5,31.5 Z"/></g>
<g><path style="opacity:1" fill="#9a732c" d="M 319.5,16.5 C 326.175,16.3337 332.842,16.5004 339.5,17C 336.008,16.9296 333.008,17.7629 330.5,19.5C 318.968,19.3691 307.634,20.0358 296.5,21.5C 282.253,22.2554 268.253,23.9221 254.5,26.5C 246.821,27.4683 239.155,28.6349 231.5,30C 191.543,37.1581 152.877,48.6581 115.5,64.5C 114.737,63.7321 113.737,63.2321 112.5,63C 115.239,61.9741 117.572,60.4741 119.5,58.5C 122.716,58.6545 125.383,57.6545 127.5,55.5C 128.93,54.4625 130.597,53.7959 132.5,53.5C 135.716,53.6545 138.383,52.6545 140.5,50.5C 148.168,48.9428 155.501,46.6094 162.5,43.5C 162.833,43.5 163.167,43.5 163.5,43.5C 165.403,43.2041 167.07,42.5375 168.5,41.5C 170.993,40.2264 173.659,39.5597 176.5,39.5C 178.898,39.7406 180.898,39.0739 182.5,37.5C 183.568,36.5655 184.901,36.2322 186.5,36.5C 189.152,36.5905 191.485,35.9238 193.5,34.5C 194.919,33.5489 196.585,33.2155 198.5,33.5C 201.228,33.8294 203.562,33.1628 205.5,31.5C 206.167,31.5 206.833,31.5 207.5,31.5C 210.228,31.8294 212.562,31.1628 214.5,29.5C 216.435,28.8505 218.435,28.5172 220.5,28.5C 232.733,27.1278 244.733,25.1278 256.5,22.5C 257.568,21.5655 258.901,21.2322 260.5,21.5C 266.069,21.624 271.402,20.9573 276.5,19.5C 276.833,19.5 277.167,19.5 277.5,19.5C 284.072,19.761 290.406,19.0943 296.5,17.5C 304.111,16.5663 311.778,16.2329 319.5,16.5 Z"/></g>
<g><path style="opacity:1" fill="#cba045" d="M 460.5,30.5 C 466.388,31.3407 472.055,32.674 477.5,34.5C 471.468,34.1646 465.801,32.8313 460.5,30.5 Z"/></g>
<g><path style="opacity:1" fill="#c5ab80" d="M 483.5,31.5 C 485.898,31.2594 487.898,31.9261 489.5,33.5C 487.102,33.7406 485.102,33.0739 483.5,31.5 Z"/></g>
<g><path style="opacity:1" fill="#bea275" d="M 193.5,34.5 C 191.485,35.9238 189.152,36.5905 186.5,36.5C 188.515,35.0762 190.848,34.4095 193.5,34.5 Z"/></g>
<g><path style="opacity:1" fill="#b39662" d="M 182.5,37.5 C 180.898,39.0739 178.898,39.7406 176.5,39.5C 178.102,37.9261 180.102,37.2594 182.5,37.5 Z"/></g>
<g><path style="opacity:1" fill="#e4d7c2" d="M 511.5,38.5 C 514.152,38.4095 516.485,39.0762 518.5,40.5C 515.848,40.5905 513.515,39.9238 511.5,38.5 Z"/></g>
<g><path style="opacity:1" fill="#b89d6f" d="M 168.5,41.5 C 167.07,42.5375 165.403,43.2041 163.5,43.5C 164.635,41.7868 166.302,41.1201 168.5,41.5 Z"/></g>
<g><path style="opacity:1" fill="#b79b6a" d="M 162.5,43.5 C 155.501,46.6094 148.168,48.9428 140.5,50.5C 147.499,47.3906 154.832,45.0572 162.5,43.5 Z"/></g>
<g><path style="opacity:1" fill="#f5d377" d="M 420.5,55.5 C 443.036,60.6325 465.703,66.1325 488.5,72C 497.283,75.4297 506.283,77.9297 515.5,79.5C 531.756,87.6212 548.422,95.2879 565.5,102.5C 567.378,104.285 569.044,106.285 570.5,108.5C 569.15,109.95 567.484,110.617 565.5,110.5C 558.125,105.48 550.458,100.98 542.5,97C 497.051,77.5784 449.718,64.745 400.5,58.5C 394.712,57.1901 388.712,56.5234 382.5,56.5C 375.557,55.5733 368.557,55.24 361.5,55.5C 340.776,54.016 320.109,54.6826 299.5,57.5C 293.931,57.376 288.598,58.0427 283.5,59.5C 269.004,61.0435 254.671,63.3768 240.5,66.5C 237.572,66.5651 234.905,67.2318 232.5,68.5C 232.167,68.5 231.833,68.5 231.5,68.5C 228.572,68.5651 225.905,69.2318 223.5,70.5C 221.102,70.2594 219.102,70.9261 217.5,72.5C 211.627,73.4688 205.96,74.8021 200.5,76.5C 195.466,77.3982 190.799,79.0649 186.5,81.5C 182.16,82.5024 177.826,83.6691 173.5,85C 172.944,85.3826 172.611,85.8826 172.5,86.5C 154.537,91.4837 137.87,99.1503 122.5,109.5C 121.185,108.524 119.852,107.524 118.5,106.5C 119.243,105.818 119.909,105.151 120.5,104.5C 130.537,97.8126 141.204,92.146 152.5,87.5C 173.874,80.3266 195.207,73.1599 216.5,66C 239.468,61.8296 262.468,57.4963 285.5,53C 330.607,47.9579 375.607,48.7912 420.5,55.5 Z"/></g>
<g><path style="opacity:1" fill="#b29463" d="M 140.5,50.5 C 138.383,52.6545 135.716,53.6545 132.5,53.5C 134.936,52.129 137.603,51.129 140.5,50.5 Z"/></g>
<g><path style="opacity:1" fill="#c5aa7a" d="M 550.5,51.5 C 552.027,51.427 553.027,52.0937 553.5,53.5C 551.973,53.573 550.973,52.9063 550.5,51.5 Z"/></g>
<g><path style="opacity:1" fill="#b89242" d="M 361.5,55.5 C 346.821,55.4171 332.154,55.7504 317.5,56.5C 311.523,57.1646 305.523,57.498 299.5,57.5C 320.109,54.6826 340.776,54.016 361.5,55.5 Z"/></g>
<g><path style="opacity:1" fill="#966b25" d="M 361.5,55.5 C 368.557,55.24 375.557,55.5733 382.5,56.5C 388.274,57.9457 394.274,58.6123 400.5,58.5C 449.718,64.745 497.051,77.5784 542.5,97C 550.458,100.98 558.125,105.48 565.5,110.5C 566.75,112.932 568.25,115.266 570,117.5C 572.768,125.093 575.268,132.76 577.5,140.5C 573.689,141.645 569.689,141.812 565.5,141C 569.167,140.667 572.833,140.333 576.5,140C 570.988,138.019 563.321,137.019 553.5,137C 568.167,136.333 568.167,135.667 553.5,135C 557.232,134.028 556.899,133.528 552.5,133.5C 550.667,133.585 549.334,134.252 548.5,135.5C 543.344,130.186 537.678,125.353 531.5,121C 503.215,107.125 473.548,96.7919 442.5,90C 420.887,85.2247 399.22,81.7247 377.5,79.5C 379.927,79.477 382.26,78.977 384.5,78C 364.5,77.3333 364.5,76.6667 384.5,76C 376.819,75.1086 369.152,74.1086 361.5,73C 365.167,72.6667 368.833,72.3333 372.5,72C 363.5,71 354.5,70 345.5,69C 350.5,68.6667 355.5,68.3333 360.5,68C 351.53,66.7374 342.53,65.7374 333.5,65C 338.5,64.6667 343.5,64.3333 348.5,64C 339.5,63 330.5,62 321.5,61C 341.5,60.3333 341.5,59.6667 321.5,59C 322.5,58.6667 323.5,58.3333 324.5,58C 321.964,57.8138 319.631,57.3138 317.5,56.5C 332.154,55.7504 346.821,55.4171 361.5,55.5 Z"/></g>
<g><path style="opacity:1" fill="#967025" d="M 317.5,56.5 C 319.631,57.3138 321.964,57.8138 324.5,58C 323.5,58.3333 322.5,58.6667 321.5,59C 341.5,59.6667 341.5,60.3333 321.5,61C 330.5,62 339.5,63 348.5,64C 343.5,64.3333 338.5,64.6667 333.5,65C 342.53,65.7374 351.53,66.7374 360.5,68C 355.5,68.3333 350.5,68.6667 345.5,69C 354.5,70 363.5,71 372.5,72C 368.833,72.3333 365.167,72.6667 361.5,73C 369.152,74.1086 376.819,75.1086 384.5,76C 364.5,76.6667 364.5,77.3333 384.5,78C 382.26,78.977 379.927,79.477 377.5,79.5C 372.5,79.5 367.5,79.5 362.5,79.5C 329.015,77.5107 295.681,79.844 262.5,86.5C 259.695,85.6805 256.695,85.1805 253.5,85C 257.167,84.6667 260.833,84.3333 264.5,84C 256.819,83.1086 249.152,82.1086 241.5,81C 245.167,80.6667 248.833,80.3333 252.5,80C 242.679,79.9807 235.012,78.9807 229.5,77C 233.167,76.6667 236.833,76.3333 240.5,76C 232.746,75.2629 225.079,74.0962 217.5,72.5C 219.102,70.9261 221.102,70.2594 223.5,70.5C 226.495,70.7062 229.162,70.0395 231.5,68.5C 231.833,68.5 232.167,68.5 232.5,68.5C 235.495,68.7062 238.162,68.0395 240.5,66.5C 254.671,63.3768 269.004,61.0435 283.5,59.5C 289.084,59.7451 294.417,59.0784 299.5,57.5C 305.523,57.498 311.523,57.1646 317.5,56.5 Z"/></g>
<g><path style="opacity:1" fill="#d0ab56" d="M 382.5,56.5 C 388.712,56.5234 394.712,57.1901 400.5,58.5C 394.274,58.6123 388.274,57.9457 382.5,56.5 Z"/></g>
<g><path style="opacity:1" fill="#b29463" d="M 127.5,55.5 C 125.383,57.6545 122.716,58.6545 119.5,58.5C 121.936,57.129 124.603,56.129 127.5,55.5 Z"/></g>
<g><path style="opacity:1" fill="#b89141" d="M 299.5,57.5 C 294.417,59.0784 289.084,59.7451 283.5,59.5C 288.598,58.0427 293.931,57.376 299.5,57.5 Z"/></g>
<g><path style="opacity:1" fill="#e9c669" d="M 420.5,55.5 C 439.2,59.0068 457.867,62.8402 476.5,67C 489.561,70.9788 502.561,75.1454 515.5,79.5C 506.283,77.9297 497.283,75.4297 488.5,72C 465.703,66.1325 443.036,60.6325 420.5,55.5 Z"/></g>
<g><path style="opacity:1" fill="#c19b48" d="M 240.5,66.5 C 238.162,68.0395 235.495,68.7062 232.5,68.5C 234.905,67.2318 237.572,66.5651 240.5,66.5 Z"/></g>
<g><path style="opacity:1" fill="#9a7632" d="M 119.5,58.5 C 117.572,60.4741 115.239,61.9741 112.5,63C 113.737,63.2321 114.737,63.7321 115.5,64.5C 109.452,67.2379 103.452,70.0712 97.5,73C 94.079,74.6985 91.079,76.8652 88.5,79.5C 86.5491,80.7158 85.0491,82.3825 84,84.5C 79.4023,94.1724 75.2357,103.839 71.5,113.5C 71.4208,112.07 71.7542,110.736 72.5,109.5C 71.3002,108.708 69.9669,108.708 68.5,109.5C 69.4208,105.701 71.0875,102.368 73.5,99.5C 75.0739,97.8984 75.7406,95.8984 75.5,93.5C 77.7589,86.48 81.4256,80.3133 86.5,75C 96.9643,68.4345 107.964,62.9345 119.5,58.5 Z"/></g>
<g><path style="opacity:1" fill="#c19c49" d="M 231.5,68.5 C 229.162,70.0395 226.495,70.7062 223.5,70.5C 225.905,69.2318 228.572,68.5651 231.5,68.5 Z"/></g>
<g><path style="opacity:1" fill="#9c7025" d="M 217.5,72.5 C 225.079,74.0962 232.746,75.2629 240.5,76C 236.833,76.3333 233.167,76.6667 229.5,77C 235.012,78.9807 242.679,79.9807 252.5,80C 248.833,80.3333 245.167,80.6667 241.5,81C 249.152,82.1086 256.819,83.1086 264.5,84C 260.833,84.3333 257.167,84.6667 253.5,85C 256.695,85.1805 259.695,85.6805 262.5,86.5C 250.785,88.0391 239.452,90.7058 228.5,94.5C 218.524,96.386 208.857,99.0527 199.5,102.5C 198.5,102.5 197.5,102.5 196.5,102.5C 191.684,101.674 186.684,101.174 181.5,101C 186.5,100.667 191.5,100.333 196.5,100C 187.5,99 178.5,98 169.5,97C 184.167,96.3333 184.167,95.6667 169.5,95C 170.5,94.6667 171.5,94.3333 172.5,94C 167.167,93.6667 161.833,93.3333 156.5,93C 162.036,91.0565 167.369,88.8899 172.5,86.5C 172.611,85.8826 172.944,85.3826 173.5,85C 177.826,83.6691 182.16,82.5024 186.5,81.5C 191.59,80.7369 196.257,79.0703 200.5,76.5C 205.96,74.8021 211.627,73.4688 217.5,72.5 Z"/></g>
<g><path style="opacity:1" fill="#e0d2bc" d="M 599.5,74.5 C 602.167,75.1667 603.833,76.8333 604.5,79.5C 602.5,78.1667 600.833,76.5 599.5,74.5 Z"/></g>
<g><path style="opacity:1" fill="#ba9241" d="M 200.5,76.5 C 196.257,79.0703 191.59,80.7369 186.5,81.5C 190.799,79.0649 195.466,77.3982 200.5,76.5 Z"/></g>
<g><path style="opacity:1" fill="#675333" d="M 362.5,79.5 C 367.5,79.5 372.5,79.5 377.5,79.5C 399.22,81.7247 420.887,85.2247 442.5,90C 473.548,96.7919 503.215,107.125 531.5,121C 537.678,125.353 543.344,130.186 548.5,135.5C 556.516,150.54 562.182,166.54 565.5,183.5C 568.057,196.059 571.057,208.393 574.5,220.5C 574.5,220.833 574.5,221.167 574.5,221.5C 576.424,237.692 578.757,253.692 581.5,269.5C 581.5,270.5 581.5,271.5 581.5,272.5C 584.154,311.166 584.154,349.833 581.5,388.5C 579.846,400.453 578.179,412.453 576.5,424.5C 576.5,424.833 576.5,425.167 576.5,425.5C 571.966,449.073 566.299,472.407 559.5,495.5C 559.5,495.833 559.5,496.167 559.5,496.5C 557.057,501.5 555.39,506.834 554.5,512.5C 550.065,522.703 545.065,532.703 539.5,542.5C 533.823,547.661 527.823,552.328 521.5,556.5C 513.011,559.913 504.678,563.58 496.5,567.5C 491.105,568.738 486.105,570.738 481.5,573.5C 480.508,573.328 479.842,573.662 479.5,574.5C 472.833,575.724 466.499,577.724 460.5,580.5C 452.912,581.924 445.579,583.924 438.5,586.5C 438.167,586.5 437.833,586.5 437.5,586.5C 433.2,586.755 429.2,587.755 425.5,589.5C 413.93,590.872 402.597,592.872 391.5,595.5C 382.455,595.804 373.455,596.638 364.5,598C 353.839,598.5 343.172,598.667 332.5,598.5C 330.833,598.5 329.167,598.5 327.5,598.5C 323.081,597.028 318.414,596.362 313.5,596.5C 305.18,595.391 296.846,594.391 288.5,593.5C 277.535,591.572 266.535,589.239 255.5,586.5C 254.833,586.5 254.167,586.5 253.5,586.5C 249.022,584.877 244.356,583.544 239.5,582.5C 238.833,582.5 238.167,582.5 237.5,582.5C 214.859,575.45 192.526,567.283 170.5,558C 164.185,554.843 158.185,551.176 152.5,547C 149.639,544.106 147.139,540.939 145,537.5C 137.842,525.205 132.342,512.205 128.5,498.5C 125.35,486.899 121.683,475.565 117.5,464.5C 116.833,460.5 116.167,456.5 115.5,452.5C 115.59,449.848 114.924,447.515 113.5,445.5C 113.552,443.097 113.219,440.764 112.5,438.5C 111.787,433.42 110.787,428.42 109.5,423.5C 108.48,413.988 107.147,404.654 105.5,395.5C 105.479,388.626 104.813,381.959 103.5,375.5C 102.74,369.196 102.407,362.863 102.5,356.5C 101.53,333.839 101.53,311.173 102.5,288.5C 103.598,282.021 104.265,275.354 104.5,268.5C 104.423,264.785 104.756,261.119 105.5,257.5C 107.031,252.75 107.698,247.75 107.5,242.5C 107.508,239.455 107.841,236.455 108.5,233.5C 109.885,227.909 110.885,222.243 111.5,216.5C 113.171,208.183 115.171,199.85 117.5,191.5C 120.102,184.434 122.102,177.101 123.5,169.5C 124.774,167.007 125.44,164.341 125.5,161.5C 129.541,151.405 134.541,141.738 140.5,132.5C 151.733,121.953 164.733,114.287 179.5,109.5C 186.514,107.941 193.18,105.608 199.5,102.5C 209.47,100.593 219.137,97.9263 228.5,94.5C 272.49,83.5676 317.156,78.5676 362.5,79.5 Z"/></g>
<g><path style="opacity:1" fill="#c08f32" d="M 88.5,79.5 C 89.2026,81.7157 90.5359,83.549 92.5,85C 100.667,91.6688 108.667,98.5021 116.5,105.5C 91.6936,160.63 77.1936,218.63 73,279.5C 72.5,306.831 72.3334,334.165 72.5,361.5C 71.5024,337.339 71.169,313.006 71.5,288.5C 59.5358,286.081 47.8692,282.748 36.5,278.5C 38.5424,221.414 50.209,166.414 71.5,113.5C 75.2357,103.839 79.4023,94.1724 84,84.5C 85.0491,82.3825 86.5491,80.7158 88.5,79.5 Z"/></g>
<g><path style="opacity:1" fill="#c18f32" d="M 599.5,80.5 C 600.496,80.4142 601.329,80.7476 602,81.5C 614.044,109.581 624.378,138.248 633,167.5C 636.525,188.719 640.358,209.719 644.5,230.5C 646.581,239.001 647.581,247.668 647.5,256.5C 647.746,265.205 648.413,273.872 649.5,282.5C 647.261,284.046 645.095,285.046 643,285.5C 642.667,285.167 642.333,284.833 642,284.5C 640.856,286.917 639.19,287.584 637,286.5C 636.395,288.481 635.395,288.815 634,287.5C 633.395,289.481 632.395,289.815 631,288.5C 630.676,290.569 629.842,290.902 628.5,289.5C 627.808,290.025 627.308,290.692 627,291.5C 626.667,291.167 626.333,290.833 626,290.5C 624.333,291.5 622.667,292.5 621,293.5C 620.667,293.167 620.333,292.833 620,292.5C 619.395,294.481 618.395,294.815 617,293.5C 616.395,295.481 615.395,295.815 614,294.5C 613.824,287.276 612.991,280.276 611.5,273.5C 607.28,217.786 594.78,164.119 574,112.5C 571.521,110.912 571.021,108.912 572.5,106.5C 582.815,99.1851 591.815,90.5185 599.5,80.5 Z"/></g>
<g><path style="opacity:1" fill="#c0a77c" d="M 366.5,86.5 C 417.1,89.8191 465.766,100.986 512.5,120C 520.579,123.541 528.245,127.874 535.5,133C 539.422,136.251 542.588,140.084 545,144.5C 548.181,152.886 551.514,161.219 555,169.5C 560.665,192.993 565.499,216.66 569.5,240.5C 570.52,250.013 571.853,259.347 573.5,268.5C 574.212,275.143 574.546,281.809 574.5,288.5C 573.66,292.472 573.493,296.472 574,300.5C 572.613,298.699 571.113,298.032 569.5,298.5C 570.693,300.527 572.36,302.027 574.5,303C 567.523,306.01 560.523,309.177 553.5,312.5C 552.991,329.376 551.991,346.209 550.5,363C 549.021,404.919 541.521,446.086 528,486.5C 525.737,494.086 522.571,501.253 518.5,508C 519.634,509.016 519.301,509.683 517.5,510C 517.833,510.333 518.167,510.667 518.5,511C 515.698,513.105 514.365,515.939 514.5,519.5C 513.209,519.263 512.209,519.596 511.5,520.5C 476.738,540.376 439.405,553.542 399.5,560C 382.109,562.932 364.609,564.766 347,565.5C 327.994,564.958 309.16,562.958 290.5,559.5C 285.336,546.854 280.169,534.187 275,521.5C 262.215,509.055 250.549,495.722 240,481.5C 237.612,474.686 236.945,467.686 238,460.5C 239.643,449.312 242.143,438.312 245.5,427.5C 245.192,426.692 244.692,426.025 244,425.5C 239.138,437.087 234.471,448.754 230,460.5C 224.313,466.686 218.813,473.019 213.5,479.5C 214.365,480.583 215.365,480.749 216.5,480C 220.507,478.172 224.174,476.172 227.5,474C 241.255,491.093 255.755,507.593 271,523.5C 273.97,533.368 275.97,543.368 277,553.5C 275.938,554.899 274.605,555.899 273,556.5C 249.205,550.735 226.038,543.068 203.5,533.5C 202.386,525.52 202.386,517.687 203.5,510C 205.103,505.446 206.437,500.779 207.5,496C 207.888,493.279 207.888,490.446 207.5,487.5C 205.44,492.354 202.773,497.521 199.5,503C 199.833,503.333 200.167,503.667 200.5,504C 196.708,509.749 193.042,515.582 189.5,521.5C 187.978,522.562 186.312,523.229 184.5,523.5C 178.257,520.093 173.09,515.427 169,509.5C 158.457,483.143 149.791,456.143 143,428.5C 140.831,415.159 138.997,401.826 137.5,388.5C 137.435,384.382 136.769,380.382 135.5,376.5C 135.326,374.307 135.993,372.473 137.5,371C 137.167,370.667 136.833,370.333 136.5,370C 148.896,349.137 162.563,329.303 177.5,310.5C 177.333,310.167 177.167,309.833 177,309.5C 176.25,310.126 175.416,310.626 174.5,311C 163.137,322.029 152.137,333.363 141.5,345C 139.884,345.615 138.551,346.615 137.5,348C 136.207,348.49 134.873,348.657 133.5,348.5C 133.333,332.83 133.5,317.163 134,301.5C 135.283,296.499 135.45,291.499 134.5,286.5C 135.98,280.455 136.98,274.455 137.5,268.5C 136.706,265.482 137.039,262.482 138.5,259.5C 138.392,258.558 138.059,257.725 137.5,257C 138.569,253.466 139.569,249.966 140.5,246.5C 139.623,244.318 139.956,242.151 141.5,240C 140.632,238.135 140.966,236.302 142.5,234.5C 142.167,233.833 141.833,233.167 141.5,232.5C 142.706,229.44 143.706,226.44 144.5,223.5C 143.529,222.038 143.862,220.705 145.5,219.5C 145.291,218.914 144.957,218.414 144.5,218C 146.471,215.135 147.137,212.135 146.5,209C 148.394,207.921 148.727,206.587 147.5,205C 148.357,204.311 149.023,203.478 149.5,202.5C 149.377,200.622 149.377,198.789 149.5,197C 151.394,195.921 151.727,194.587 150.5,193C 152.125,192.147 152.458,191.147 151.5,190C 153.211,187.544 154.544,184.877 155.5,182C 155.167,181.667 154.833,181.333 154.5,181C 156.441,179.184 157.108,177.184 156.5,175C 158.125,174.147 158.458,173.147 157.5,172C 158.288,168.537 159.954,165.537 162.5,163C 162.167,162.667 161.833,162.333 161.5,162C 162.5,159.667 163.5,157.333 164.5,155C 158.426,149.583 152.426,144.25 146.5,139C 148.141,137.871 149.141,136.371 149.5,134.5C 152.366,131.479 155.7,128.979 159.5,127C 192.098,111.08 226.432,100.247 262.5,94.5C 283.112,91.6736 303.778,89.1736 324.5,87C 338.496,86.5001 352.496,86.3334 366.5,86.5 Z"/></g>
<g><path style="opacity:1" fill="#765b2b" d="M 362.5,79.5 C 317.156,78.5676 272.49,83.5676 228.5,94.5C 239.452,90.7058 250.785,88.0391 262.5,86.5C 295.681,79.844 329.015,77.5107 362.5,79.5 Z"/></g>
<g><path style="opacity:1" fill="#9c8661" d="M 366.5,86.5 C 352.496,86.3334 338.496,86.5001 324.5,87C 303.778,89.1736 283.112,91.6736 262.5,94.5C 296.805,86.7522 331.471,84.0855 366.5,86.5 Z"/></g>
<g><path style="opacity:1" fill="#9d7727" d="M 172.5,86.5 C 167.369,88.8899 162.036,91.0565 156.5,93C 161.833,93.3333 167.167,93.6667 172.5,94C 171.5,94.3333 170.5,94.6667 169.5,95C 184.167,95.6667 184.167,96.3333 169.5,97C 178.5,98 187.5,99 196.5,100C 191.5,100.333 186.5,100.667 181.5,101C 186.684,101.174 191.684,101.674 196.5,102.5C 190.753,104.638 185.086,106.971 179.5,109.5C 164.733,114.287 151.733,121.953 140.5,132.5C 140.649,131.448 140.483,130.448 140,129.5C 133.593,123.597 127.759,117.263 122.5,110.5C 122.5,110.167 122.5,109.833 122.5,109.5C 137.87,99.1503 154.537,91.4837 172.5,86.5 Z"/></g>
<g><path style="opacity:1" fill="#d6c6a7" d="M 610.5,91.5 C 611.906,91.9731 612.573,92.9731 612.5,94.5C 611.094,94.0269 610.427,93.0269 610.5,91.5 Z"/></g>
<g><path style="opacity:1" fill="#b19364" d="M 75.5,93.5 C 75.7406,95.8984 75.0739,97.8984 73.5,99.5C 73.2594,97.1016 73.9261,95.1016 75.5,93.5 Z"/></g>
<g><path style="opacity:1" fill="#775d2b" d="M 228.5,94.5 C 219.137,97.9263 209.47,100.593 199.5,102.5C 208.857,99.0527 218.524,96.386 228.5,94.5 Z"/></g>
<g><path style="opacity:1" fill="#d6c6a7" d="M 612.5,96.5 C 613.906,96.9731 614.573,97.9731 614.5,99.5C 613.094,99.0269 612.427,98.0269 612.5,96.5 Z"/></g>
<g><path style="opacity:1" fill="#795e2b" d="M 196.5,102.5 C 197.5,102.5 198.5,102.5 199.5,102.5C 193.18,105.608 186.514,107.941 179.5,109.5C 185.086,106.971 190.753,104.638 196.5,102.5 Z"/></g>
<g><path style="opacity:1" fill="#e7bc59" d="M 565.5,102.5 C 568.295,103.063 570.628,104.396 572.5,106.5C 571.021,108.912 571.521,110.912 574,112.5C 594.78,164.119 607.28,217.786 611.5,273.5C 612.001,285.511 612.667,297.511 613.5,309.5C 614.138,354.789 610.971,399.789 604,444.5C 602.439,449.535 600.772,454.535 599,459.5C 596.371,473.217 593.371,486.884 590,500.5C 583.918,516.629 577.918,532.629 572,548.5C 569.09,554.654 565.924,560.654 562.5,566.5C 551.455,573.356 540.121,579.689 528.5,585.5C 521.386,587.75 514.719,590.75 508.5,594.5C 489.374,600.687 470.374,606.687 451.5,612.5C 444.884,613.089 438.55,614.422 432.5,616.5C 424.365,617.989 416.365,619.656 408.5,621.5C 397.295,622.294 386.295,623.627 375.5,625.5C 369.369,625.379 363.369,626.046 357.5,627.5C 345.817,627.602 334.15,627.269 322.5,626.5C 299.884,623.503 277.218,620.003 254.5,616C 209.589,606.756 167.256,590.923 127.5,568.5C 123.51,563.196 120.01,557.53 117,551.5C 113.014,542.538 109.18,533.538 105.5,524.5C 104.806,519.085 103.14,514.085 100.5,509.5C 97.8357,497.195 94.3357,485.195 90,473.5C 87.3176,460.103 84.3176,446.77 81,433.5C 79.73,427.215 78.8967,420.882 78.5,414.5C 78.2235,407.92 77.2235,401.587 75.5,395.5C 75.5095,384.591 74.5095,373.924 72.5,363.5C 72.5,362.833 72.5,362.167 72.5,361.5C 72.3334,334.165 72.5,306.831 73,279.5C 77.1936,218.63 91.6936,160.63 116.5,105.5C 117.708,104.766 119.041,104.433 120.5,104.5C 119.909,105.151 119.243,105.818 118.5,106.5C 119.852,107.524 121.185,108.524 122.5,109.5C 122.5,109.833 122.5,110.167 122.5,110.5C 114.751,121.34 109.084,133.34 105.5,146.5C 98.7023,164.243 93.7023,182.577 90.5,201.5C 87.0344,213.501 84.7011,225.834 83.5,238.5C 80.6048,253.896 78.9381,269.563 78.5,285.5C 75.7101,317.43 76.0435,349.43 79.5,381.5C 81.2612,400.969 83.9279,420.303 87.5,439.5C 87.9935,444.303 88.9935,448.97 90.5,453.5C 96.992,484.639 106.659,514.639 119.5,543.5C 121.779,549.392 124.613,555.059 128,560.5C 130.501,563.848 133.668,566.182 137.5,567.5C 140.909,569.46 144.242,571.793 147.5,574.5C 178.761,589.92 211.428,600.92 245.5,607.5C 246.7,608.531 248.034,609.365 249.5,610C 271.293,614.096 292.959,617.929 314.5,621.5C 318.347,620.741 322.181,621.074 326,622.5C 329.193,621.223 332.36,621.223 335.5,622.5C 348.039,622.799 360.372,622.132 372.5,620.5C 375.888,622.054 379.055,621.721 382,619.5C 383.144,619.911 384.311,620.244 385.5,620.5C 390.482,618.587 395.482,617.92 400.5,618.5C 403.547,618.032 406.381,617.032 409,615.5C 409.725,616.059 410.558,616.392 411.5,616.5C 415.929,615.45 420.263,614.117 424.5,612.5C 425.167,612.833 425.833,613.167 426.5,613.5C 438.548,610.493 450.548,607.493 462.5,604.5C 483.612,598.222 504.279,590.722 524.5,582C 526.684,580.637 528.684,579.137 530.5,577.5C 539.327,574.42 547.66,570.253 555.5,565C 557.041,563.629 558.375,562.129 559.5,560.5C 562.751,555.285 565.918,549.952 569,544.5C 574.144,530.22 578.978,515.886 583.5,501.5C 589.101,481.759 593.768,461.759 597.5,441.5C 599.016,434.566 600.349,427.566 601.5,420.5C 603.834,403.829 605.834,387.162 607.5,370.5C 610.134,343.501 610.134,316.501 607.5,289.5C 606.833,284.833 606.167,280.167 605.5,275.5C 604.883,261.571 603.217,247.904 600.5,234.5C 598.836,220.516 596.169,206.849 592.5,193.5C 590.24,183.212 588.074,172.878 586,162.5C 583.053,155.151 580.22,147.818 577.5,140.5C 575.268,132.76 572.768,125.093 570,117.5C 568.25,115.266 566.75,112.932 565.5,110.5C 567.484,110.617 569.15,109.95 570.5,108.5C 569.044,106.285 567.378,104.285 565.5,102.5 Z"/></g>
<g><path style="opacity:1" fill="#b0832c" d="M 122.5,110.5 C 127.759,117.263 133.593,123.597 140,129.5C 140.483,130.448 140.649,131.448 140.5,132.5C 134.541,141.738 129.541,151.405 125.5,161.5C 122.813,161.664 120.146,161.497 117.5,161C 119.833,160.667 122.167,160.333 124.5,160C 119.5,159.667 114.5,159.333 109.5,159C 110.5,158.667 111.5,158.333 112.5,158C 109.24,157.216 106.073,157.383 103,158.5C 103.902,154.598 104.735,150.598 105.5,146.5C 109.084,133.34 114.751,121.34 122.5,110.5 Z"/></g>
<g><path style="opacity:1" fill="#a98b56" d="M 68.5,110.5 C 68.5848,113.649 67.5848,116.316 65.5,118.5C 65.4152,115.351 66.4152,112.684 68.5,110.5 Z"/></g>
<g><path style="opacity:1" fill="#d0ba97" d="M 618.5,112.5 C 619.906,112.973 620.573,113.973 620.5,115.5C 619.094,115.027 618.427,114.027 618.5,112.5 Z"/></g>
<g><path style="opacity:1" fill="#aa8d58" d="M 65.5,118.5 C 65.7406,120.898 65.0739,122.898 63.5,124.5C 63.2594,122.102 63.9261,120.102 65.5,118.5 Z"/></g>
<g><path style="opacity:1" fill="#af9670" d="M 237.5,125.5 C 243.006,125.597 244.006,127.43 240.5,131C 240.434,134.8 240.434,138.633 240.5,142.5C 237.543,146.825 233.876,150.491 229.5,153.5C 225.921,158.114 223.088,163.114 221,168.5C 219.951,169.517 218.784,169.684 217.5,169C 222.779,160.736 222.779,153.069 217.5,146C 217.957,145.586 218.291,145.086 218.5,144.5C 215.98,141.152 213.314,137.985 210.5,135C 219.197,132.655 227.864,129.989 236.5,127C 237.056,126.617 237.389,126.117 237.5,125.5 Z"/></g>
<g><path style="opacity:1" fill="#967025" d="M 577.5,140.5 C 580.22,147.818 583.053,155.151 586,162.5C 588.074,172.878 590.24,183.212 592.5,193.5C 588.818,193.665 585.152,193.499 581.5,193C 584.833,192.667 588.167,192.333 591.5,192C 584.167,191 576.833,190 569.5,189C 584.167,188.333 584.167,187.667 569.5,187C 572.937,186.351 573.104,185.851 570,185.5C 568.93,185.528 568.097,185.861 567.5,186.5C 566.833,185.5 566.167,184.5 565.5,183.5C 562.182,166.54 556.516,150.54 548.5,135.5C 549.334,134.252 550.667,133.585 552.5,133.5C 556.899,133.528 557.232,134.028 553.5,135C 568.167,135.667 568.167,136.333 553.5,137C 563.321,137.019 570.988,138.019 576.5,140C 572.833,140.333 569.167,140.667 565.5,141C 569.689,141.812 573.689,141.645 577.5,140.5 Z"/></g>
<g><path style="opacity:1" fill="#bfa983" d="M 60.5,131.5 C 58.276,141.169 55.276,150.503 51.5,159.5C 53.724,149.831 56.724,140.497 60.5,131.5 Z"/></g>
<g><path style="opacity:1" fill="#ae956f" d="M 149.5,134.5 C 149.141,136.371 148.141,137.871 146.5,139C 152.426,144.25 158.426,149.583 164.5,155C 163.5,157.333 162.5,159.667 161.5,162C 161.833,162.333 162.167,162.667 162.5,163C 159.954,165.537 158.288,168.537 157.5,172C 158.458,173.147 158.125,174.147 156.5,175C 157.108,177.184 156.441,179.184 154.5,181C 154.833,181.333 155.167,181.667 155.5,182C 154.544,184.877 153.211,187.544 151.5,190C 152.458,191.147 152.125,192.147 150.5,193C 151.727,194.587 151.394,195.921 149.5,197C 149.377,198.789 149.377,200.622 149.5,202.5C 149.023,203.478 148.357,204.311 147.5,205C 148.727,206.587 148.394,207.921 146.5,209C 147.137,212.135 146.471,215.135 144.5,218C 144.957,218.414 145.291,218.914 145.5,219.5C 143.862,220.705 143.529,222.038 144.5,223.5C 143.706,226.44 142.706,229.44 141.5,232.5C 141.833,233.167 142.167,233.833 142.5,234.5C 140.966,236.302 140.632,238.135 141.5,240C 139.956,242.151 139.623,244.318 140.5,246.5C 139.569,249.966 138.569,253.466 137.5,257C 138.059,257.725 138.392,258.558 138.5,259.5C 137.039,262.482 136.706,265.482 137.5,268.5C 136.98,274.455 135.98,280.455 134.5,286.5C 135.45,291.499 135.283,296.499 134,301.5C 133.5,317.163 133.333,332.83 133.5,348.5C 134.873,348.657 136.207,348.49 137.5,348C 138.551,346.615 139.884,345.615 141.5,345C 152.137,333.363 163.137,322.029 174.5,311C 175.416,310.626 176.25,310.126 177,309.5C 177.167,309.833 177.333,310.167 177.5,310.5C 162.563,329.303 148.896,349.137 136.5,370C 136.833,370.333 137.167,370.667 137.5,371C 135.993,372.473 135.326,374.307 135.5,376.5C 136.769,380.382 137.435,384.382 137.5,388.5C 136.322,384.824 134.822,381.157 133,377.5C 129.931,374.193 126.098,372.693 121.5,373C 120.748,372.329 120.414,371.496 120.5,370.5C 126.102,366.073 131.602,361.407 137,356.5C 139.267,351.092 137.433,348.925 131.5,350C 127.047,354.373 121.714,356.373 115.5,356C 113.584,353.91 111.584,352.077 109.5,350.5C 108.37,331.198 108.204,311.864 109,292.5C 110.617,284.68 111.45,276.68 111.5,268.5C 112.737,263.04 113.404,257.373 113.5,251.5C 117.277,224.423 122.777,197.756 130,171.5C 133.668,159.835 138.668,148.835 145,138.5C 146.371,136.959 147.871,135.625 149.5,134.5 Z"/></g>
<g><path style="opacity:1" fill="#916c29" d="M 71.5,113.5 C 50.209,166.414 38.5424,221.414 36.5,278.5C 34.9988,291.3 34.3321,304.3 34.5,317.5C 34.7565,332.837 35.0898,348.17 35.5,363.5C 34.0043,348.028 33.3376,332.361 33.5,316.5C 33.307,301.786 33.9736,287.119 35.5,272.5C 35.1667,271.167 34.8333,269.833 34.5,268.5C 33.8281,269.949 33.1614,271.282 32.5,272.5C 32.7731,265.496 33.1064,258.496 33.5,251.5C 35.1357,247.79 35.8023,243.79 35.5,239.5C 35.5,238.833 35.5,238.167 35.5,237.5C 37.0538,233.433 37.7204,229.1 37.5,224.5C 37.5,223.833 37.5,223.167 37.5,222.5C 39.2301,218.117 40.2301,213.45 40.5,208.5C 42.842,195.794 45.5086,183.128 48.5,170.5C 50.0739,168.898 50.7406,166.898 50.5,164.5C 50.366,162.708 50.6993,161.042 51.5,159.5C 55.276,150.503 58.276,141.169 60.5,131.5C 61.3228,129.013 62.3228,126.679 63.5,124.5C 65.0739,122.898 65.7406,120.898 65.5,118.5C 67.5848,116.316 68.5848,113.649 68.5,110.5C 68.5,110.167 68.5,109.833 68.5,109.5C 69.9669,108.708 71.3002,108.708 72.5,109.5C 71.7542,110.736 71.4208,112.07 71.5,113.5 Z"/></g>
<g><path style="opacity:1" fill="#ccb892" d="M 632.5,153.5 C 634.04,155.838 634.706,158.505 634.5,161.5C 633.232,159.095 632.565,156.428 632.5,153.5 Z"/></g>
<g><path style="opacity:1" fill="#b68933" d="M 105.5,146.5 C 104.735,150.598 103.902,154.598 103,158.5C 106.073,157.383 109.24,157.216 112.5,158C 111.5,158.333 110.5,158.667 109.5,159C 114.5,159.333 119.5,159.667 124.5,160C 122.167,160.333 119.833,160.667 117.5,161C 120.146,161.497 122.813,161.664 125.5,161.5C 125.44,164.341 124.774,167.007 123.5,169.5C 120.587,176.478 118.587,183.811 117.5,191.5C 115.171,199.85 113.171,208.183 111.5,216.5C 111.5,214.833 111.5,213.167 111.5,211.5C 105.541,210.523 99.5406,209.69 93.5,209C 95.8333,208.667 98.1667,208.333 100.5,208C 97.1832,207.502 93.8499,207.335 90.5,207.5C 90.5,205.5 90.5,203.5 90.5,201.5C 93.7023,182.577 98.7023,164.243 105.5,146.5 Z"/></g>
<g><path style="opacity:1" fill="#bda882" d="M 50.5,164.5 C 50.7406,166.898 50.0739,168.898 48.5,170.5C 48.2594,168.102 48.9261,166.102 50.5,164.5 Z"/></g>
<g><path style="opacity:1" fill="#8c6c32" d="M 123.5,169.5 C 122.102,177.101 120.102,184.434 117.5,191.5C 118.587,183.811 120.587,176.478 123.5,169.5 Z"/></g>
<g><path style="opacity:1" fill="#b19872" d="M 522.5,171.5 C 524.655,171.372 526.655,171.872 528.5,173C 531.455,177.639 533.455,182.473 534.5,187.5C 536.086,199.365 538.753,211.198 542.5,223C 542.355,223.772 542.022,224.439 541.5,225C 543.111,232.033 544.777,239.033 546.5,246C 545.512,248.42 545.845,250.753 547.5,253C 547.265,253.873 546.931,254.707 546.5,255.5C 547.928,267.542 549.594,279.542 551.5,291.5C 549.862,294.304 548.029,296.971 546,299.5C 545.598,298.128 545.098,296.795 544.5,295.5C 546.914,288.906 546.914,282.24 544.5,275.5C 545.185,272.175 544.851,268.842 543.5,265.5C 543.981,261.887 543.981,258.387 543.5,255C 541.845,252.753 541.512,250.42 542.5,248C 540.955,245.915 540.622,243.748 541.5,241.5C 539.979,239.714 539.646,237.881 540.5,236C 538.854,234.445 538.521,232.779 539.5,231C 538.715,226.364 537.382,221.864 535.5,217.5C 535.994,214.45 535.327,211.45 533.5,208.5C 534.471,207.038 534.138,205.705 532.5,204.5C 533.471,203.038 533.138,201.705 531.5,200.5C 532.471,199.038 532.138,197.705 530.5,196.5C 529.52,187.884 526.854,179.551 522.5,171.5 Z"/></g>
<g><path style="opacity:1" fill="#bea577" d="M 635.5,166.5 C 637.277,169.505 638.277,172.838 638.5,176.5C 636.723,173.495 635.723,170.162 635.5,166.5 Z"/></g>
<g><path style="opacity:1" fill="#ceba96" d="M 638.5,177.5 C 639.924,179.515 640.59,181.848 640.5,184.5C 639.076,182.485 638.41,180.152 638.5,177.5 Z"/></g>
<g><path style="opacity:1" fill="#9b7025" d="M 592.5,193.5 C 596.169,206.849 598.836,220.516 600.5,234.5C 600.083,235.124 599.416,235.457 598.5,235.5C 594.326,233.938 589.993,233.105 585.5,233C 589.167,232.667 592.833,232.333 596.5,232C 587.699,231.942 581.032,231.108 576.5,229.5C 576.037,226.67 575.371,224.003 574.5,221.5C 574.5,221.167 574.5,220.833 574.5,220.5C 572.677,209.052 570.344,197.718 567.5,186.5C 568.097,185.861 568.93,185.528 570,185.5C 573.104,185.851 572.937,186.351 569.5,187C 584.167,187.667 584.167,188.333 569.5,189C 576.833,190 584.167,191 591.5,192C 588.167,192.333 584.833,192.667 581.5,193C 585.152,193.499 588.818,193.665 592.5,193.5 Z"/></g>
<g><path style="opacity:1" fill="#c9b48f" d="M 642.5,196.5 C 645.424,204.116 647.091,212.116 647.5,220.5C 645.288,212.733 643.621,204.733 642.5,196.5 Z"/></g>
<g><path style="opacity:1" fill="#7e602a" d="M 565.5,183.5 C 566.167,184.5 566.833,185.5 567.5,186.5C 570.344,197.718 572.677,209.052 574.5,220.5C 571.057,208.393 568.057,196.059 565.5,183.5 Z"/></g>
<g><path style="opacity:1" fill="#bb8f33" d="M 90.5,201.5 C 90.5,203.5 90.5,205.5 90.5,207.5C 93.8499,207.335 97.1832,207.502 100.5,208C 98.1667,208.333 95.8333,208.667 93.5,209C 99.5406,209.69 105.541,210.523 111.5,211.5C 111.5,213.167 111.5,214.833 111.5,216.5C 110.885,222.243 109.885,227.909 108.5,233.5C 106.108,234.713 103.441,235.379 100.5,235.5C 97.4126,234.01 92.246,233.01 85,232.5C 84.8091,234.708 84.3091,236.708 83.5,238.5C 84.7011,225.834 87.0344,213.501 90.5,201.5 Z"/></g>
<g><path style="opacity:1" fill="#bfac89" d="M 40.5,208.5 C 40.2301,213.45 39.2301,218.117 37.5,222.5C 37.7699,217.55 38.7699,212.883 40.5,208.5 Z"/></g>
<g><path style="opacity:1" fill="#9c7625" d="M 576.5,229.5 C 581.032,231.108 587.699,231.942 596.5,232C 592.833,232.333 589.167,232.667 585.5,233C 589.993,233.105 594.326,233.938 598.5,235.5C 599.416,235.457 600.083,235.124 600.5,234.5C 603.217,247.904 604.883,261.571 605.5,275.5C 601.81,273.841 597.81,273.007 593.5,273C 597.167,272.667 600.833,272.333 604.5,272C 599.5,271.667 594.5,271.333 589.5,271C 590.5,270.667 591.5,270.333 592.5,270C 588.748,269.76 585.081,269.26 581.5,268.5C 580.48,255.406 578.814,242.406 576.5,229.5 Z"/></g>
<g><path style="opacity:1" fill="#bea57a" d="M 647.5,222.5 C 648.709,226.618 649.376,230.951 649.5,235.5C 648.593,233.343 647.927,231.01 647.5,228.5C 647.5,226.5 647.5,224.5 647.5,222.5 Z"/></g>
<g><path style="opacity:1" fill="#9c732f" d="M 647.5,228.5 C 647.927,231.01 648.593,233.343 649.5,235.5C 649.5,236.167 649.5,236.833 649.5,237.5C 649.717,241.705 650.383,245.705 651.5,249.5C 652.368,262.177 653.368,274.844 654.5,287.5C 654.5,293.833 654.5,300.167 654.5,306.5C 653.835,304.631 653.169,302.631 652.5,300.5C 651.833,320.329 651.167,339.996 650.5,359.5C 650.5,337.5 650.5,315.5 650.5,293.5C 650.56,280.933 649.56,268.6 647.5,256.5C 647.581,247.668 646.581,239.001 644.5,230.5C 644.821,228.952 645.821,228.285 647.5,228.5 Z"/></g>
<g><path style="opacity:1" fill="#bb8e37" d="M 108.5,233.5 C 107.841,236.455 107.508,239.455 107.5,242.5C 105.969,247.25 105.302,252.25 105.5,257.5C 104.756,261.119 104.423,264.785 104.5,268.5C 104.167,268.5 103.833,268.5 103.5,268.5C 103.5,266.833 103.5,265.167 103.5,263.5C 100.15,263.665 96.8168,263.498 93.5,263C 94.5,262.667 95.5,262.333 96.5,262C 92.8333,261.667 89.1667,261.333 85.5,261C 87.8333,260.667 90.1667,260.333 92.5,260C 89.1667,259.667 85.8333,259.333 82.5,259C 84.8776,258.026 84.5443,257.359 81.5,257C 82.6573,250.931 83.3239,244.764 83.5,238.5C 84.3091,236.708 84.8091,234.708 85,232.5C 92.246,233.01 97.4126,234.01 100.5,235.5C 103.441,235.379 106.108,234.713 108.5,233.5 Z"/></g>
<g><path style="opacity:1" fill="#b6a079" d="M 37.5,224.5 C 37.7204,229.1 37.0538,233.433 35.5,237.5C 35.2796,232.9 35.9462,228.567 37.5,224.5 Z"/></g>
<g><path style="opacity:1" fill="#80622b" d="M 574.5,221.5 C 575.371,224.003 576.037,226.67 576.5,229.5C 578.814,242.406 580.48,255.406 581.5,268.5C 581.5,268.833 581.5,269.167 581.5,269.5C 578.757,253.692 576.424,237.692 574.5,221.5 Z"/></g>
<g><path style="opacity:1" fill="#d9ccb2" d="M 649.5,237.5 C 651.136,241.21 651.802,245.21 651.5,249.5C 650.383,245.705 649.717,241.705 649.5,237.5 Z"/></g>
<g><path style="opacity:1" fill="#897451" d="M 569.5,240.5 C 571.964,249.525 573.297,258.859 573.5,268.5C 571.853,259.347 570.52,250.013 569.5,240.5 Z"/></g>
<g><path style="opacity:1" fill="#806532" d="M 107.5,242.5 C 107.698,247.75 107.031,252.75 105.5,257.5C 105.302,252.25 105.969,247.25 107.5,242.5 Z"/></g>
<g><path style="opacity:1" fill="#bda987" d="M 35.5,239.5 C 35.8023,243.79 35.1357,247.79 33.5,251.5C 33.1977,247.21 33.8643,243.21 35.5,239.5 Z"/></g>
<g><path style="opacity:1" fill="#86714f" d="M 113.5,251.5 C 113.404,257.373 112.737,263.04 111.5,268.5C 111.321,262.596 111.988,256.929 113.5,251.5 Z"/></g>
<g><path style="opacity:1" fill="#c19639" d="M 83.5,238.5 C 83.3239,244.764 82.6573,250.931 81.5,257C 84.5443,257.359 84.8776,258.026 82.5,259C 85.8333,259.333 89.1667,259.667 92.5,260C 90.1667,260.333 87.8333,260.667 85.5,261C 89.1667,261.333 92.8333,261.667 96.5,262C 95.5,262.333 94.5,262.667 93.5,263C 96.8168,263.498 100.15,263.665 103.5,263.5C 103.5,265.167 103.5,266.833 103.5,268.5C 102.861,275.148 102.527,281.814 102.5,288.5C 101.416,295.983 100.749,303.65 100.5,311.5C 95.1691,310.013 87.8358,309.346 78.5,309.5C 78.5,313.5 78.5,317.5 78.5,321.5C 77.0076,337.728 77.0076,325.728 78.5,285.5C 78.9381,269.563 80.6048,253.896 83.5,238.5 Z"/></g>
<g><path style="opacity:1" fill="#b19872" d="M 223.5,259.5 C 224.837,262.317 224.17,264.817 221.5,267C 221.833,267.333 222.167,267.667 222.5,268C 221.167,270 219.833,272 218.5,274C 218.833,274.333 219.167,274.667 219.5,275C 216.086,279.651 213.752,284.484 212.5,289.5C 205.643,293.175 198.476,296.175 191,298.5C 191.195,296.255 192.362,294.422 194.5,293C 199.199,289.98 203.533,286.48 207.5,282.5C 213.174,274.986 218.508,267.319 223.5,259.5 Z"/></g>
<g><path style="opacity:1" fill="#866328" d="M 35.5,363.5 C 35.7923,381.968 37.459,400.302 40.5,418.5C 39.5,418.5 38.5,418.5 37.5,418.5C 36.8066,413.316 35.8066,408.316 34.5,403.5C 34.624,397.931 33.9573,392.598 32.5,387.5C 32.0338,378.506 31.7004,369.506 31.5,360.5C 30.9866,339.17 30.6533,317.837 30.5,296.5C 30.0149,288.356 30.6816,280.356 32.5,272.5C 33.1614,271.282 33.8281,269.949 34.5,268.5C 34.8333,269.833 35.1667,271.167 35.5,272.5C 33.9736,287.119 33.307,301.786 33.5,316.5C 33.3376,332.361 34.0043,348.028 35.5,363.5 Z"/></g>
<g><path style="opacity:1" fill="#a1762b" d="M 581.5,268.5 C 585.081,269.26 588.748,269.76 592.5,270C 591.5,270.333 590.5,270.667 589.5,271C 594.5,271.333 599.5,271.667 604.5,272C 600.833,272.333 597.167,272.667 593.5,273C 597.81,273.007 601.81,273.841 605.5,275.5C 606.167,280.167 606.833,284.833 607.5,289.5C 607.5,296.833 607.5,304.167 607.5,311.5C 607.5,315.5 607.5,319.5 607.5,323.5C 605.473,323.662 603.473,323.495 601.5,323C 602.5,322.667 603.5,322.333 604.5,322C 599.5,321.667 594.5,321.333 589.5,321C 593.167,320.667 596.833,320.333 600.5,320C 595.339,319.807 590.339,318.973 585.5,317.5C 585.825,325.352 585.492,333.018 584.5,340.5C 584.667,326.163 584.5,311.829 584,297.5C 583.846,288.949 583.013,280.616 581.5,272.5C 581.5,271.5 581.5,270.5 581.5,269.5C 581.5,269.167 581.5,268.833 581.5,268.5 Z"/></g>
<g><path style="opacity:1" fill="#a67d2b" d="M 647.5,256.5 C 649.56,268.6 650.56,280.933 650.5,293.5C 649.662,293.158 649.328,292.492 649.5,291.5C 649.5,288.5 649.5,285.5 649.5,282.5C 648.413,273.872 647.746,265.205 647.5,256.5 Z"/></g>
<g><path style="opacity:1" fill="#a27d43" d="M 36.5,278.5 C 47.8692,282.748 59.5358,286.081 71.5,288.5C 71.169,313.006 71.5024,337.339 72.5,361.5C 72.5,362.167 72.5,362.833 72.5,363.5C 72.9318,374.364 73.9318,385.031 75.5,395.5C 75.5473,402.111 76.5473,408.444 78.5,414.5C 78.8967,420.882 79.73,427.215 81,433.5C 84.3176,446.77 87.3176,460.103 90,473.5C 94.3357,485.195 97.8357,497.195 100.5,509.5C 101.356,514.854 103.023,519.854 105.5,524.5C 109.18,533.538 113.014,542.538 117,551.5C 120.01,557.53 123.51,563.196 127.5,568.5C 126.178,568.67 125.011,568.337 124,567.5C 121.766,569.7 119.266,571.533 116.5,573C 109.689,580.978 102.356,588.478 94.5,595.5C 80.576,569.625 69.4093,542.292 61,513.5C 51.7928,482.339 44.9595,450.672 40.5,418.5C 37.459,400.302 35.7923,381.968 35.5,363.5C 35.0898,348.17 34.7565,332.837 34.5,317.5C 34.3321,304.3 34.9988,291.3 36.5,278.5 Z"/></g>
<g><path style="opacity:1" fill="#8d6f33" d="M 103.5,268.5 C 103.833,268.5 104.167,268.5 104.5,268.5C 104.265,275.354 103.598,282.021 102.5,288.5C 102.527,281.814 102.861,275.148 103.5,268.5 Z"/></g>
<g><path style="opacity:1" fill="#c18f32" d="M 649.5,291.5 C 649.328,292.492 649.662,293.158 650.5,293.5C 650.5,315.5 650.5,337.5 650.5,359.5C 646.898,423.113 634.898,485.113 614.5,545.5C 610.827,553.534 607.661,561.868 605,570.5C 600.759,578.65 596.259,586.65 591.5,594.5C 589.107,590.598 586.107,587.098 582.5,584C 575.936,577.929 569.27,572.096 562.5,566.5C 565.924,560.654 569.09,554.654 572,548.5C 577.918,532.629 583.918,516.629 590,500.5C 593.371,486.884 596.371,473.217 599,459.5C 600.772,454.535 602.439,449.535 604,444.5C 610.971,399.789 614.138,354.789 613.5,309.5C 614.485,305.366 614.818,301.032 614.5,296.5C 625.833,292.833 637.167,289.167 648.5,285.5C 648.205,287.735 648.539,289.735 649.5,291.5 Z"/></g>
<g><path style="opacity:1" fill="#c3983a" d="M 611.5,273.5 C 612.991,280.276 613.824,287.276 614,294.5C 615.395,295.815 616.395,295.481 617,293.5C 618.395,294.815 619.395,294.481 620,292.5C 620.333,292.833 620.667,293.167 621,293.5C 622.667,292.5 624.333,291.5 626,290.5C 626.333,290.833 626.667,291.167 627,291.5C 627.308,290.692 627.808,290.025 628.5,289.5C 629.842,290.902 630.676,290.569 631,288.5C 632.395,289.815 633.395,289.481 634,287.5C 635.395,288.815 636.395,288.481 637,286.5C 639.19,287.584 640.856,286.917 642,284.5C 642.333,284.833 642.667,285.167 643,285.5C 645.095,285.046 647.261,284.046 649.5,282.5C 649.5,285.5 649.5,288.5 649.5,291.5C 648.539,289.735 648.205,287.735 648.5,285.5C 637.167,289.167 625.833,292.833 614.5,296.5C 614.818,301.032 614.485,305.366 613.5,309.5C 612.667,297.511 612.001,285.511 611.5,273.5 Z"/></g>
<g><path style="opacity:1" fill="#af966f" d="M 574.5,288.5 C 575.216,293.064 575.883,297.731 576.5,302.5C 577.427,342.374 575.093,382.041 569.5,421.5C 564.636,447.165 558.636,472.498 551.5,497.5C 549.194,501.085 547.861,505.085 547.5,509.5C 543.591,519.985 538.591,529.985 532.5,539.5C 526.277,533.923 520.61,527.756 515.5,521C 514.207,520.51 512.873,520.343 511.5,520.5C 512.209,519.596 513.209,519.263 514.5,519.5C 514.365,515.939 515.698,513.105 518.5,511C 518.167,510.667 517.833,510.333 517.5,510C 519.301,509.683 519.634,509.016 518.5,508C 522.571,501.253 525.737,494.086 528,486.5C 541.521,446.086 549.021,404.919 550.5,363C 551.991,346.209 552.991,329.376 553.5,312.5C 560.523,309.177 567.523,306.01 574.5,303C 572.36,302.027 570.693,300.527 569.5,298.5C 571.113,298.032 572.613,298.699 574,300.5C 573.493,296.472 573.66,292.472 574.5,288.5 Z"/></g>
<g><path style="opacity:1" fill="#c7963e" d="M 100.5,311.5 C 100.5,316.167 100.5,320.833 100.5,325.5C 95.4889,325.666 90.4889,325.499 85.5,325C 89.1667,324.667 92.8333,324.333 96.5,324C 90.4309,323.488 84.4309,322.654 78.5,321.5C 78.5,317.5 78.5,313.5 78.5,309.5C 87.8358,309.346 95.1691,310.013 100.5,311.5 Z"/></g>
<g><path style="opacity:1" fill="#836f4b" d="M 576.5,302.5 C 578.094,333.401 577.261,364.401 574,395.5C 572.996,404.393 571.496,413.059 569.5,421.5C 575.093,382.041 577.427,342.374 576.5,302.5 Z"/></g>
<g><path style="opacity:1" fill="#a27d2b" d="M 607.5,311.5 C 608.821,324.735 608.821,338.069 607.5,351.5C 605.473,351.662 603.473,351.495 601.5,351C 602.5,350.667 603.5,350.333 604.5,350C 584.5,349.333 584.5,348.667 604.5,348C 599.5,347.667 594.5,347.333 589.5,347C 593.414,346.103 593.248,345.603 589,345.5C 587.213,345.759 585.713,346.425 584.5,347.5C 584.5,345.167 584.5,342.833 584.5,340.5C 585.492,333.018 585.825,325.352 585.5,317.5C 590.339,318.973 595.339,319.807 600.5,320C 596.833,320.333 593.167,320.667 589.5,321C 594.5,321.333 599.5,321.667 604.5,322C 603.5,322.333 602.5,322.667 601.5,323C 603.473,323.495 605.473,323.662 607.5,323.5C 607.5,319.5 607.5,315.5 607.5,311.5 Z"/></g>
<g><path style="opacity:1" fill="#c89c3f" d="M 78.5,285.5 C 77.0076,325.728 77.0076,337.728 78.5,321.5C 84.4309,322.654 90.4309,323.488 96.5,324C 92.8333,324.333 89.1667,324.667 85.5,325C 90.4889,325.499 95.4889,325.666 100.5,325.5C 100.334,333.507 100.5,341.507 101,349.5C 101.186,352.036 101.686,354.369 102.5,356.5C 102.407,362.863 102.74,369.196 103.5,375.5C 103.5,377.833 103.5,380.167 103.5,382.5C 100.253,381.748 96.9194,381.248 93.5,381C 95.8333,380.667 98.1667,380.333 100.5,380C 94.1667,379 87.8333,378 81.5,377C 83.8333,376.667 86.1667,376.333 88.5,376C 85.854,375.503 83.1873,375.336 80.5,375.5C 80.5,376.833 80.5,378.167 80.5,379.5C 83.1873,379.336 85.854,379.503 88.5,380C 85.4133,380.259 82.4133,380.759 79.5,381.5C 76.0435,349.43 75.7101,317.43 78.5,285.5 Z"/></g>
<g><path style="opacity:1" fill="#cfa74c" d="M 607.5,289.5 C 610.134,316.501 610.134,343.501 607.5,370.5C 607.5,364.167 607.5,357.833 607.5,351.5C 608.821,338.069 608.821,324.735 607.5,311.5C 607.5,304.167 607.5,296.833 607.5,289.5 Z"/></g>
<g><path style="opacity:1" fill="#9b7936" d="M 102.5,288.5 C 101.53,311.173 101.53,333.839 102.5,356.5C 101.686,354.369 101.186,352.036 101,349.5C 100.5,341.507 100.334,333.507 100.5,325.5C 100.5,320.833 100.5,316.167 100.5,311.5C 100.749,303.65 101.416,295.983 102.5,288.5 Z"/></g>
<g><path style="opacity:1" fill="#87672b" d="M 581.5,272.5 C 583.013,280.616 583.846,288.949 584,297.5C 584.5,311.829 584.667,326.163 584.5,340.5C 584.5,342.833 584.5,345.167 584.5,347.5C 584.159,361.365 583.159,375.032 581.5,388.5C 584.154,349.833 584.154,311.166 581.5,272.5 Z"/></g>
<g><path style="opacity:1" fill="#a77c2b" d="M 607.5,351.5 C 607.5,357.833 607.5,364.167 607.5,370.5C 605.834,387.162 603.834,403.829 601.5,420.5C 598.927,421.555 596.261,421.722 593.5,421C 594.5,420.667 595.5,420.333 596.5,420C 576.5,419.333 576.5,418.667 596.5,418C 591.5,417.667 586.5,417.333 581.5,417C 582.5,416.667 583.5,416.333 584.5,416C 582.527,415.505 580.527,415.338 578.5,415.5C 578.932,418.877 578.265,421.877 576.5,424.5C 578.179,412.453 579.846,400.453 581.5,388.5C 583.159,375.032 584.159,361.365 584.5,347.5C 585.713,346.425 587.213,345.759 589,345.5C 593.248,345.603 593.414,346.103 589.5,347C 594.5,347.333 599.5,347.667 604.5,348C 584.5,348.667 584.5,349.333 604.5,350C 603.5,350.333 602.5,350.667 601.5,351C 603.473,351.495 605.473,351.662 607.5,351.5 Z"/></g>
<g><path style="opacity:1" fill="#b09972" d="M 30.5,296.5 C 30.6533,317.837 30.9866,339.17 31.5,360.5C 29.4926,339.186 29.1593,317.852 30.5,296.5 Z"/></g>
<g><path style="opacity:1" fill="#966c28" d="M 120.5,370.5 C 116.729,373.264 113.729,376.597 111.5,380.5C 110.319,370.537 109.652,360.537 109.5,350.5C 111.584,352.077 113.584,353.91 115.5,356C 121.714,356.373 127.047,354.373 131.5,350C 137.433,348.925 139.267,351.092 137,356.5C 131.602,361.407 126.102,366.073 120.5,370.5 Z"/></g>
<g><path style="opacity:1" fill="#c7a14f" d="M 72.5,363.5 C 74.5095,373.924 75.5095,384.591 75.5,395.5C 73.9318,385.031 72.9318,374.364 72.5,363.5 Z"/></g>
<g><path style="opacity:1" fill="#cbba9b" d="M 654.5,287.5 C 655.167,300.162 655.5,312.996 655.5,326C 655.696,344.359 655.029,362.526 653.5,380.5C 654.301,355.842 654.634,331.175 654.5,306.5C 654.5,300.167 654.5,293.833 654.5,287.5 Z"/></g>
<g><path style="opacity:1" fill="#a27d44" d="M 120.5,370.5 C 120.414,371.496 120.748,372.329 121.5,373C 126.098,372.693 129.931,374.193 133,377.5C 134.822,381.157 136.322,384.824 137.5,388.5C 138.997,401.826 140.831,415.159 143,428.5C 149.791,456.143 158.457,483.143 169,509.5C 173.09,515.427 178.257,520.093 184.5,523.5C 190.181,527.958 196.514,531.291 203.5,533.5C 226.038,543.068 249.205,550.735 273,556.5C 274.605,555.899 275.938,554.899 277,553.5C 275.97,543.368 273.97,533.368 271,523.5C 255.755,507.593 241.255,491.093 227.5,474C 224.174,476.172 220.507,478.172 216.5,480C 215.365,480.749 214.365,480.583 213.5,479.5C 218.813,473.019 224.313,466.686 230,460.5C 234.471,448.754 239.138,437.087 244,425.5C 244.692,426.025 245.192,426.692 245.5,427.5C 242.143,438.312 239.643,449.312 238,460.5C 236.945,467.686 237.612,474.686 240,481.5C 250.549,495.722 262.215,509.055 275,521.5C 280.169,534.187 285.336,546.854 290.5,559.5C 309.16,562.958 327.994,564.958 347,565.5C 364.609,564.766 382.109,562.932 399.5,560C 439.405,553.542 476.738,540.376 511.5,520.5C 512.873,520.343 514.207,520.51 515.5,521C 520.61,527.756 526.277,533.923 532.5,539.5C 524.869,545.657 516.536,550.823 507.5,555C 447.618,581.536 384.952,593.203 319.5,590C 273.357,584.964 228.69,573.964 185.5,557C 176.245,552.705 167.245,547.871 158.5,542.5C 152.426,536.027 147.592,528.694 144,520.5C 140.284,512.024 136.95,503.357 134,494.5C 129.716,479.338 125.549,464.172 121.5,449C 120.353,439.625 118.519,430.458 116,421.5C 114.878,407.785 113.378,394.119 111.5,380.5C 113.729,376.597 116.729,373.264 120.5,370.5 Z"/></g>
<g><path style="opacity:1" fill="#cda143" d="M 103.5,382.5 C 103.884,387.01 104.551,391.343 105.5,395.5C 105.701,405.127 107.034,414.461 109.5,423.5C 110.787,428.42 111.787,433.42 112.5,438.5C 108.919,437.74 105.252,437.24 101.5,437C 102.5,436.667 103.5,436.333 104.5,436C 100.833,435.667 97.1667,435.333 93.5,435C 95.8333,434.667 98.1667,434.333 100.5,434C 96.8333,433.667 93.1667,433.333 89.5,433C 90.5,432.667 91.5,432.333 92.5,432C 90.8659,431.506 89.1992,431.34 87.5,431.5C 88.4968,435.137 88.9968,438.804 89,442.5C 88.7679,441.263 88.2679,440.263 87.5,439.5C 83.9279,420.303 81.2612,400.969 79.5,381.5C 82.4133,380.759 85.4133,380.259 88.5,380C 85.854,379.503 83.1873,379.336 80.5,379.5C 80.5,378.167 80.5,376.833 80.5,375.5C 83.1873,375.336 85.854,375.503 88.5,376C 86.1667,376.333 83.8333,376.667 81.5,377C 87.8333,378 94.1667,379 100.5,380C 98.1667,380.333 95.8333,380.667 93.5,381C 96.9194,381.248 100.253,381.748 103.5,382.5 Z"/></g>
<g><path style="opacity:1" fill="#987738" d="M 103.5,375.5 C 104.813,381.959 105.479,388.626 105.5,395.5C 104.551,391.343 103.884,387.01 103.5,382.5C 103.5,380.167 103.5,377.833 103.5,375.5 Z"/></g>
<g><path style="opacity:1" fill="#cbbb9c" d="M 653.5,382.5 C 652.966,396.107 651.299,409.44 648.5,422.5C 649.691,408.971 651.358,395.637 653.5,382.5 Z"/></g>
<g><path style="opacity:1" fill="#977939" d="M 105.5,395.5 C 107.147,404.654 108.48,413.988 109.5,423.5C 107.034,414.461 105.701,405.127 105.5,395.5 Z"/></g>
<g><path style="opacity:1" fill="#d4c8b5" d="M 32.5,387.5 C 33.9573,392.598 34.624,397.931 34.5,403.5C 33.0427,398.402 32.376,393.069 32.5,387.5 Z"/></g>
<g><path style="opacity:1" fill="#c9a24f" d="M 75.5,395.5 C 77.2235,401.587 78.2235,407.92 78.5,414.5C 76.5473,408.444 75.5473,402.111 75.5,395.5 Z"/></g>
<g><path style="opacity:1" fill="#926c26" d="M 654.5,306.5 C 654.634,331.175 654.301,355.842 653.5,380.5C 653.5,381.167 653.5,381.833 653.5,382.5C 651.358,395.637 649.691,408.971 648.5,422.5C 646.425,432.282 644.758,442.282 643.5,452.5C 642.448,456.426 641.782,460.426 641.5,464.5C 640.076,466.515 639.41,468.848 639.5,471.5C 639.309,475.262 638.642,478.929 637.5,482.5C 636.076,484.515 635.41,486.848 635.5,489.5C 634.566,490.568 634.232,491.901 634.5,493.5C 633.076,495.515 632.41,497.848 632.5,500.5C 632.167,501.833 631.833,503.167 631.5,504.5C 630.076,506.515 629.41,508.848 629.5,511.5C 628.076,513.515 627.41,515.848 627.5,518.5C 626.89,519.391 626.557,520.391 626.5,521.5C 624.167,527.5 621.833,533.5 619.5,539.5C 618.923,538.227 618.257,538.227 617.5,539.5C 616.864,541.78 615.864,543.78 614.5,545.5C 634.898,485.113 646.898,423.113 650.5,359.5C 651.167,339.996 651.833,320.329 652.5,300.5C 653.169,302.631 653.835,304.631 654.5,306.5 Z"/></g>
<g><path style="opacity:1" fill="#b2a07d" d="M 34.5,403.5 C 35.8066,408.316 36.8066,413.316 37.5,418.5C 37.8333,421.833 38.1667,425.167 38.5,428.5C 36.2532,420.456 34.9198,412.123 34.5,403.5 Z"/></g>
<g><path style="opacity:1" fill="#ad822b" d="M 601.5,420.5 C 600.349,427.566 599.016,434.566 597.5,441.5C 591.959,439.846 584.293,439.012 574.5,439C 581.833,438.667 589.167,438.333 596.5,438C 589.508,437.5 582.508,437.334 575.5,437.5C 576.021,433.519 576.354,429.519 576.5,425.5C 576.5,425.167 576.5,424.833 576.5,424.5C 578.265,421.877 578.932,418.877 578.5,415.5C 580.527,415.338 582.527,415.505 584.5,416C 583.5,416.333 582.5,416.667 581.5,417C 586.5,417.333 591.5,417.667 596.5,418C 576.5,418.667 576.5,419.333 596.5,420C 595.5,420.333 594.5,420.667 593.5,421C 596.261,421.722 598.927,421.555 601.5,420.5 Z"/></g>
<g><path style="opacity:1" fill="#d3a744" d="M 112.5,438.5 C 113.219,440.764 113.552,443.097 113.5,445.5C 113.171,448.228 113.837,450.562 115.5,452.5C 116.167,456.5 116.833,460.5 117.5,464.5C 116.399,465.598 115.066,465.765 113.5,465C 114.5,464.667 115.5,464.333 116.5,464C 111.5,463.667 106.5,463.333 101.5,463C 105.167,462.667 108.833,462.333 112.5,462C 107.5,461.667 102.5,461.333 97.5,461C 98.5,460.667 99.5,460.333 100.5,460C 98.1667,459.667 95.8333,459.333 93.5,459C 93.12,456.674 92.12,454.841 90.5,453.5C 88.9935,448.97 87.9935,444.303 87.5,439.5C 88.2679,440.263 88.7679,441.263 89,442.5C 88.9968,438.804 88.4968,435.137 87.5,431.5C 89.1992,431.34 90.8659,431.506 92.5,432C 91.5,432.333 90.5,432.667 89.5,433C 93.1667,433.333 96.8333,433.667 100.5,434C 98.1667,434.333 95.8333,434.667 93.5,435C 97.1667,435.333 100.833,435.667 104.5,436C 103.5,436.333 102.5,436.667 101.5,437C 105.252,437.24 108.919,437.74 112.5,438.5 Z"/></g>
<g><path style="opacity:1" fill="#c8b799" d="M 648.5,422.5 C 648.665,426.182 648.499,429.848 648,433.5C 646.908,440.057 645.408,446.391 643.5,452.5C 644.758,442.282 646.425,432.282 648.5,422.5 Z"/></g>
<g><path style="opacity:1" fill="#bfae91" d="M 38.5,429.5 C 40.0217,434.273 41.0217,439.273 41.5,444.5C 40.8826,444.389 40.3826,444.056 40,443.5C 39.006,438.882 38.506,434.215 38.5,429.5 Z"/></g>
<g><path style="opacity:1" fill="#ad8232" d="M 576.5,425.5 C 576.354,429.519 576.021,433.519 575.5,437.5C 582.508,437.334 589.508,437.5 596.5,438C 589.167,438.333 581.833,438.667 574.5,439C 584.293,439.012 591.959,439.846 597.5,441.5C 593.768,461.759 589.101,481.759 583.5,501.5C 578.279,500.008 570.945,499.174 561.5,499C 566.5,498.667 571.5,498.333 576.5,498C 570.74,497.595 565.074,496.762 559.5,495.5C 566.299,472.407 571.966,449.073 576.5,425.5 Z"/></g>
<g><path style="opacity:1" fill="#9e7e3b" d="M 113.5,445.5 C 114.924,447.515 115.59,449.848 115.5,452.5C 113.837,450.562 113.171,448.228 113.5,445.5 Z"/></g>
<g><path style="opacity:1" fill="#d2a74b" d="M 90.5,453.5 C 92.12,454.841 93.12,456.674 93.5,459C 95.8333,459.333 98.1667,459.667 100.5,460C 99.5,460.333 98.5,460.667 97.5,461C 102.5,461.333 107.5,461.667 112.5,462C 108.833,462.333 105.167,462.667 101.5,463C 106.5,463.333 111.5,463.667 116.5,464C 115.5,464.333 114.5,464.667 113.5,465C 115.066,465.765 116.399,465.598 117.5,464.5C 121.683,475.565 125.35,486.899 128.5,498.5C 123.828,496.208 118.828,495.041 113.5,495C 115.833,494.667 118.167,494.333 120.5,494C 114.431,493.488 108.431,492.654 102.5,491.5C 106.904,507.546 112.404,523.213 119,538.5C 119.494,540.134 119.66,541.801 119.5,543.5C 106.659,514.639 96.992,484.639 90.5,453.5 Z"/></g>
<g><path style="opacity:1" fill="#bca882" d="M 641.5,464.5 C 641.59,467.152 640.924,469.485 639.5,471.5C 639.41,468.848 640.076,466.515 641.5,464.5 Z"/></g>
<g><path style="opacity:1" fill="#c7b697" d="M 637.5,482.5 C 637.59,485.152 636.924,487.485 635.5,489.5C 635.41,486.848 636.076,484.515 637.5,482.5 Z"/></g>
<g><path style="opacity:1" fill="#c8bba4" d="M 49.5,484.5 C 50.9238,486.515 51.5905,488.848 51.5,491.5C 50.0762,489.485 49.4095,487.152 49.5,484.5 Z"/></g>
<g><path style="opacity:1" fill="#d7ad4a" d="M 128.5,498.5 C 132.342,512.205 137.842,525.205 145,537.5C 147.139,540.939 149.639,544.106 152.5,547C 158.185,551.176 164.185,554.843 170.5,558C 192.526,567.283 214.859,575.45 237.5,582.5C 223.42,582.053 211.42,580.887 201.5,579C 221.5,578.333 221.5,577.667 201.5,577C 202.5,576.667 203.5,576.333 204.5,576C 199.5,575.667 194.5,575.333 189.5,575C 193.167,574.667 196.833,574.333 200.5,574C 191.5,573 182.5,572 173.5,571C 178.489,570.501 183.489,570.334 188.5,570.5C 188.5,569.5 188.5,568.5 188.5,567.5C 184.818,567.665 181.152,567.499 177.5,567C 179.833,566.667 182.167,566.333 184.5,566C 176.819,565.109 169.152,564.109 161.5,563C 165.167,562.667 168.833,562.333 172.5,562C 164.819,561.109 157.152,560.109 149.5,559C 151.833,558.667 154.167,558.333 156.5,558C 148.819,557.109 141.152,556.109 133.5,555C 137.167,554.667 140.833,554.333 144.5,554C 139.235,553.761 134.068,552.928 129,551.5C 127.833,551.833 126.667,552.167 125.5,552.5C 126.666,555.503 128.333,558.17 130.5,560.5C 133.785,561.324 137.118,561.824 140.5,562C 137.964,562.186 135.631,562.686 133.5,563.5C 135.139,564.473 136.473,565.806 137.5,567.5C 133.668,566.182 130.501,563.848 128,560.5C 124.613,555.059 121.779,549.392 119.5,543.5C 119.66,541.801 119.494,540.134 119,538.5C 112.404,523.213 106.904,507.546 102.5,491.5C 108.431,492.654 114.431,493.488 120.5,494C 118.167,494.333 115.833,494.667 113.5,495C 118.828,495.041 123.828,496.208 128.5,498.5 Z"/></g>
<g><path style="opacity:1" fill="#b09770" d="M 203.5,533.5 C 196.514,531.291 190.181,527.958 184.5,523.5C 186.312,523.229 187.978,522.562 189.5,521.5C 193.042,515.582 196.708,509.749 200.5,504C 200.167,503.667 199.833,503.333 199.5,503C 202.773,497.521 205.44,492.354 207.5,487.5C 207.888,490.446 207.888,493.279 207.5,496C 206.437,500.779 205.103,505.446 203.5,510C 202.386,517.687 202.386,525.52 203.5,533.5 Z"/></g>
<g><path style="opacity:1" fill="#d2c8b5" d="M 52.5,496.5 C 54.3104,499.145 55.3104,502.145 55.5,505.5C 53.5275,502.916 52.5275,499.916 52.5,496.5 Z"/></g>
<g><path style="opacity:1" fill="#8c6c32" d="M 559.5,496.5 C 558.61,502.166 556.943,507.5 554.5,512.5C 555.39,506.834 557.057,501.5 559.5,496.5 Z"/></g>
<g><path style="opacity:1" fill="#bdaa87" d="M 634.5,493.5 C 634.59,496.152 633.924,498.485 632.5,500.5C 632.41,497.848 633.076,495.515 634.5,493.5 Z"/></g>
<g><path style="opacity:1" fill="#8d7651" d="M 551.5,497.5 C 550.739,501.784 549.405,505.784 547.5,509.5C 547.861,505.085 549.194,501.085 551.5,497.5 Z"/></g>
<g><path style="opacity:1" fill="#b38832" d="M 559.5,495.5 C 565.074,496.762 570.74,497.595 576.5,498C 571.5,498.333 566.5,498.667 561.5,499C 570.945,499.174 578.279,500.008 583.5,501.5C 578.978,515.886 574.144,530.22 569,544.5C 565.918,549.952 562.751,555.285 559.5,560.5C 558.609,559.89 557.609,559.557 556.5,559.5C 551.119,553.452 545.452,547.785 539.5,542.5C 545.065,532.703 550.065,522.703 554.5,512.5C 556.943,507.5 558.61,502.166 559.5,496.5C 559.5,496.167 559.5,495.833 559.5,495.5 Z"/></g>
<g><path style="opacity:1" fill="#c3af8f" d="M 631.5,504.5 C 631.59,507.152 630.924,509.485 629.5,511.5C 629.41,508.848 630.076,506.515 631.5,504.5 Z"/></g>
<g><path style="opacity:1" fill="#d7ccbc" d="M 56.5,510.5 C 57.9238,512.515 58.5905,514.848 58.5,517.5C 57.0762,515.485 56.4095,513.152 56.5,510.5 Z"/></g>
<g><path style="opacity:1" fill="#c4b395" d="M 629.5,511.5 C 629.59,514.152 628.924,516.485 627.5,518.5C 627.41,515.848 628.076,513.515 629.5,511.5 Z"/></g>
<g><path style="opacity:1" fill="#b9944a" d="M 100.5,509.5 C 103.14,514.085 104.806,519.085 105.5,524.5C 103.023,519.854 101.356,514.854 100.5,509.5 Z"/></g>
<g><path style="opacity:1" fill="#c4b394" d="M 626.5,521.5 C 624.992,529.697 622.325,537.363 618.5,544.5C 619.038,542.883 619.371,541.216 619.5,539.5C 621.833,533.5 624.167,527.5 626.5,521.5 Z"/></g>
<g><path style="opacity:1" fill="#cca043" d="M 539.5,542.5 C 545.452,547.785 551.119,553.452 556.5,559.5C 554.321,560.926 551.821,561.592 549,561.5C 543.903,560.225 538.736,559.391 533.5,559C 535.833,558.667 538.167,558.333 540.5,558C 536.833,557.667 533.167,557.333 529.5,557C 530.5,556.667 531.5,556.333 532.5,556C 528.779,555.322 525.112,555.489 521.5,556.5C 527.823,552.328 533.823,547.661 539.5,542.5 Z"/></g>
<g><path style="opacity:1" fill="#c8b79f" d="M 616.5,550.5 C 616.88,552.698 616.213,554.365 614.5,555.5C 614.796,553.597 615.463,551.93 616.5,550.5 Z"/></g>
<g><path style="opacity:1" fill="#e0ae4e" d="M 237.5,582.5 C 238.167,582.5 238.833,582.5 239.5,582.5C 239.611,583.117 239.944,583.617 240.5,584C 244.754,585.314 249.087,586.147 253.5,586.5C 254.167,586.5 254.833,586.5 255.5,586.5C 257.761,588.255 260.428,589.422 263.5,590C 262.833,590.333 262.167,590.667 261.5,591C 269.155,592.054 276.822,592.888 284.5,593.5C 282.369,594.314 280.036,594.814 277.5,595C 285.152,596.109 292.819,597.109 300.5,598C 298.167,598.333 295.833,598.667 293.5,599C 297.167,599.333 300.833,599.667 304.5,600C 303.5,600.333 302.5,600.667 301.5,601C 306.5,601.333 311.5,601.667 316.5,602C 312.833,602.333 309.167,602.667 305.5,603C 313.152,604.109 320.819,605.109 328.5,606C 326.167,606.333 323.833,606.667 321.5,607C 329.152,608.109 336.819,609.109 344.5,610C 340.833,610.333 337.167,610.667 333.5,611C 341.152,612.109 348.819,613.109 356.5,614C 354.167,614.333 351.833,614.667 349.5,615C 357.152,616.109 364.819,617.109 372.5,618C 368.833,618.333 365.167,618.667 361.5,619C 365.356,619.177 369.023,619.677 372.5,620.5C 360.372,622.132 348.039,622.799 335.5,622.5C 337.042,621.837 338.709,621.17 340.5,620.5C 336.878,619.675 333.211,619.175 329.5,619C 331.833,618.667 334.167,618.333 336.5,618C 328.819,617.109 321.152,616.109 313.5,615C 317.167,614.667 320.833,614.333 324.5,614C 319.5,613.667 314.5,613.333 309.5,613C 310.5,612.667 311.5,612.333 312.5,612C 308.833,611.667 305.167,611.333 301.5,611C 303.833,610.667 306.167,610.333 308.5,610C 304.833,609.667 301.167,609.333 297.5,609C 298.5,608.667 299.5,608.333 300.5,608C 295.5,607.667 290.5,607.333 285.5,607C 287.833,606.667 290.167,606.333 292.5,606C 288.833,605.667 285.167,605.333 281.5,605C 282.5,604.667 283.5,604.333 284.5,604C 279.5,603.667 274.5,603.333 269.5,603C 273.167,602.667 276.833,602.333 280.5,602C 272.819,601.109 265.152,600.109 257.5,599C 259.833,598.667 262.167,598.333 264.5,598C 256.819,597.109 249.152,596.109 241.5,595C 245.167,594.667 248.833,594.333 252.5,594C 244.819,593.109 237.152,592.109 229.5,591C 231.833,590.667 234.167,590.333 236.5,590C 228.819,589.109 221.152,588.109 213.5,587C 217.167,586.667 220.833,586.333 224.5,586C 216.819,585.109 209.152,584.109 201.5,583C 203.833,582.667 206.167,582.333 208.5,582C 200.819,581.109 193.152,580.109 185.5,579C 189.167,578.667 192.833,578.333 196.5,578C 188.819,577.109 181.152,576.109 173.5,575C 175.833,574.667 178.167,574.333 180.5,574C 172.819,573.109 165.152,572.109 157.5,571C 161.167,570.667 164.833,570.333 168.5,570C 160.819,569.109 153.152,568.109 145.5,567C 147.833,566.667 150.167,566.333 152.5,566C 146.118,565.38 139.784,564.547 133.5,563.5C 135.631,562.686 137.964,562.186 140.5,562C 137.118,561.824 133.785,561.324 130.5,560.5C 128.333,558.17 126.666,555.503 125.5,552.5C 126.667,552.167 127.833,551.833 129,551.5C 134.068,552.928 139.235,553.761 144.5,554C 140.833,554.333 137.167,554.667 133.5,555C 141.152,556.109 148.819,557.109 156.5,558C 154.167,558.333 151.833,558.667 149.5,559C 157.152,560.109 164.819,561.109 172.5,562C 168.833,562.333 165.167,562.667 161.5,563C 169.152,564.109 176.819,565.109 184.5,566C 182.167,566.333 179.833,566.667 177.5,567C 181.152,567.499 184.818,567.665 188.5,567.5C 188.5,568.5 188.5,569.5 188.5,570.5C 183.489,570.334 178.489,570.501 173.5,571C 182.5,572 191.5,573 200.5,574C 196.833,574.333 193.167,574.667 189.5,575C 194.5,575.333 199.5,575.667 204.5,576C 203.5,576.333 202.5,576.667 201.5,577C 221.5,577.667 221.5,578.333 201.5,579C 211.42,580.887 223.42,582.053 237.5,582.5 Z"/></g>
<g><path style="opacity:1" fill="#d1a644" d="M 556.5,559.5 C 557.609,559.557 558.609,559.89 559.5,560.5C 558.375,562.129 557.041,563.629 555.5,565C 547.66,570.253 539.327,574.42 530.5,577.5C 524.969,579.234 519.303,579.734 513.5,579C 517.167,578.667 520.833,578.333 524.5,578C 516.819,577.109 509.152,576.109 501.5,575C 503.833,574.667 506.167,574.333 508.5,574C 502.479,573.891 496.812,572.724 491.5,570.5C 493.565,570.047 495.232,569.047 496.5,567.5C 504.678,563.58 513.011,559.913 521.5,556.5C 525.112,555.489 528.779,555.322 532.5,556C 531.5,556.333 530.5,556.667 529.5,557C 533.167,557.333 536.833,557.667 540.5,558C 538.167,558.333 535.833,558.667 533.5,559C 538.736,559.391 543.903,560.225 549,561.5C 551.821,561.592 554.321,560.926 556.5,559.5 Z"/></g>
<g><path style="opacity:1" fill="#b39f7d" d="M 72.5,557.5 C 73.9063,557.973 74.573,558.973 74.5,560.5C 73.0937,560.027 72.427,559.027 72.5,557.5 Z"/></g>
<g><path style="opacity:1" fill="#dfb451" d="M 133.5,563.5 C 139.784,564.547 146.118,565.38 152.5,566C 150.167,566.333 147.833,566.667 145.5,567C 153.152,568.109 160.819,569.109 168.5,570C 164.833,570.333 161.167,570.667 157.5,571C 165.152,572.109 172.819,573.109 180.5,574C 178.167,574.333 175.833,574.667 173.5,575C 181.152,576.109 188.819,577.109 196.5,578C 192.833,578.333 189.167,578.667 185.5,579C 193.152,580.109 200.819,581.109 208.5,582C 206.167,582.333 203.833,582.667 201.5,583C 209.152,584.109 216.819,585.109 224.5,586C 220.833,586.333 217.167,586.667 213.5,587C 221.152,588.109 228.819,589.109 236.5,590C 234.167,590.333 231.833,590.667 229.5,591C 237.152,592.109 244.819,593.109 252.5,594C 248.833,594.333 245.167,594.667 241.5,595C 249.152,596.109 256.819,597.109 264.5,598C 262.167,598.333 259.833,598.667 257.5,599C 265.152,600.109 272.819,601.109 280.5,602C 276.833,602.333 273.167,602.667 269.5,603C 274.5,603.333 279.5,603.667 284.5,604C 283.5,604.333 282.5,604.667 281.5,605C 285.167,605.333 288.833,605.667 292.5,606C 290.167,606.333 287.833,606.667 285.5,607C 290.5,607.333 295.5,607.667 300.5,608C 299.5,608.333 298.5,608.667 297.5,609C 301.167,609.333 304.833,609.667 308.5,610C 306.167,610.333 303.833,610.667 301.5,611C 305.167,611.333 308.833,611.667 312.5,612C 311.5,612.333 310.5,612.667 309.5,613C 314.5,613.333 319.5,613.667 324.5,614C 320.833,614.333 317.167,614.667 313.5,615C 321.152,616.109 328.819,617.109 336.5,618C 334.167,618.333 331.833,618.667 329.5,619C 333.211,619.175 336.878,619.675 340.5,620.5C 338.709,621.17 337.042,621.837 335.5,622.5C 332.36,621.223 329.193,621.223 326,622.5C 322.181,621.074 318.347,620.741 314.5,621.5C 292.959,617.929 271.293,614.096 249.5,610C 248.034,609.365 246.7,608.531 245.5,607.5C 211.428,600.92 178.761,589.92 147.5,574.5C 144.242,571.793 140.909,569.46 137.5,567.5C 136.473,565.806 135.139,564.473 133.5,563.5 Z"/></g>
<g><path style="opacity:1" fill="#966a25" d="M 127.5,568.5 C 167.256,590.923 209.589,606.756 254.5,616C 277.218,620.003 299.884,623.503 322.5,626.5C 329.603,628.105 336.937,628.772 344.5,628.5C 344.208,638.09 344.208,647.59 344.5,657C 343.877,659.607 343.21,662.107 342.5,664.5C 298.827,661.999 255.827,655.166 213.5,644C 211.939,643.682 210.772,642.849 210,641.5C 208.989,642.337 207.822,642.67 206.5,642.5C 173.947,633.031 142.281,620.865 111.5,606C 105.718,602.531 100.052,599.031 94.5,595.5C 102.356,588.478 109.689,580.978 116.5,573C 119.266,571.533 121.766,569.7 124,567.5C 125.011,568.337 126.178,568.67 127.5,568.5 Z"/></g>
<g><path style="opacity:1" fill="#a27d43" d="M 562.5,566.5 C 569.27,572.096 575.936,577.929 582.5,584C 586.107,587.098 589.107,590.598 591.5,594.5C 584.287,599.085 576.953,603.585 569.5,608C 546.026,619.319 522.026,629.153 497.5,637.5C 449.187,653.276 399.52,662.276 348.5,664.5C 347.167,664.5 345.833,664.5 344.5,664.5C 345.392,652.526 345.725,640.526 345.5,628.5C 349.702,628.817 353.702,628.483 357.5,627.5C 363.369,626.046 369.369,625.379 375.5,625.5C 386.789,625.456 397.789,624.123 408.5,621.5C 416.365,619.656 424.365,617.989 432.5,616.5C 439.189,616.37 445.523,615.036 451.5,612.5C 470.374,606.687 489.374,600.687 508.5,594.5C 515.74,592.542 522.407,589.542 528.5,585.5C 540.121,579.689 551.455,573.356 562.5,566.5 Z"/></g>
<g><path style="opacity:1" fill="#d8cdba" d="M 610.5,566.5 C 610.741,568.898 610.074,570.898 608.5,572.5C 608.259,570.102 608.926,568.102 610.5,566.5 Z"/></g>
<g><path style="opacity:1" fill="#ad8b3f" d="M 496.5,567.5 C 495.232,569.047 493.565,570.047 491.5,570.5C 488.345,572.076 485.012,573.076 481.5,573.5C 486.105,570.738 491.105,568.738 496.5,567.5 Z"/></g>
<g><path style="opacity:1" fill="#d3a74b" d="M 491.5,570.5 C 496.812,572.724 502.479,573.891 508.5,574C 506.167,574.333 503.833,574.667 501.5,575C 509.152,576.109 516.819,577.109 524.5,578C 520.833,578.333 517.167,578.667 513.5,579C 519.303,579.734 524.969,579.234 530.5,577.5C 528.684,579.137 526.684,580.637 524.5,582C 504.279,590.722 483.612,598.222 462.5,604.5C 462.47,603.503 462.97,602.836 464,602.5C 469.827,601.009 475.327,598.842 480.5,596C 476.833,595.667 473.167,595.333 469.5,595C 471.833,594.667 474.167,594.333 476.5,594C 472.833,593.667 469.167,593.333 465.5,593C 466.5,592.667 467.5,592.333 468.5,592C 463.5,591.667 458.5,591.333 453.5,591C 455.833,590.667 458.167,590.333 460.5,590C 456.833,589.667 453.167,589.333 449.5,589C 450.5,588.667 451.5,588.333 452.5,588C 447.802,587.649 443.136,587.149 438.5,586.5C 445.579,583.924 452.912,581.924 460.5,580.5C 467.167,579.276 473.501,577.276 479.5,574.5C 479.842,573.662 480.508,573.328 481.5,573.5C 485.012,573.076 488.345,572.076 491.5,570.5 Z"/></g>
<g><path style="opacity:1" fill="#ad8a40" d="M 479.5,574.5 C 473.501,577.276 467.167,579.276 460.5,580.5C 466.499,577.724 472.833,575.724 479.5,574.5 Z"/></g>
<g><path style="opacity:1" fill="#c6b9a2" d="M 81.5,578.5 C 83.0652,580.509 84.0652,582.843 84.5,585.5C 82.1663,583.824 81.1663,581.491 81.5,578.5 Z"/></g>
<g><path style="opacity:1" fill="#b48f45" d="M 239.5,582.5 C 244.356,583.544 249.022,584.877 253.5,586.5C 249.087,586.147 244.754,585.314 240.5,584C 239.944,583.617 239.611,583.117 239.5,582.5 Z"/></g>
<g><path style="opacity:1" fill="#d9ae4b" d="M 437.5,586.5 C 437.833,586.5 438.167,586.5 438.5,586.5C 443.136,587.149 447.802,587.649 452.5,588C 451.5,588.333 450.5,588.667 449.5,589C 453.167,589.333 456.833,589.667 460.5,590C 458.167,590.333 455.833,590.667 453.5,591C 458.5,591.333 463.5,591.667 468.5,592C 467.5,592.333 466.5,592.667 465.5,593C 469.167,593.333 472.833,593.667 476.5,594C 474.167,594.333 471.833,594.667 469.5,595C 473.167,595.333 476.833,595.667 480.5,596C 475.327,598.842 469.827,601.009 464,602.5C 462.97,602.836 462.47,603.503 462.5,604.5C 450.548,607.493 438.548,610.493 426.5,613.5C 425.833,613.167 425.167,612.833 424.5,612.5C 420.263,614.117 415.929,615.45 411.5,616.5C 410.558,616.392 409.725,616.059 409,615.5C 406.381,617.032 403.547,618.032 400.5,618.5C 395.482,617.92 390.482,618.587 385.5,620.5C 384.311,620.244 383.144,619.911 382,619.5C 379.055,621.721 375.888,622.054 372.5,620.5C 369.023,619.677 365.356,619.177 361.5,619C 365.167,618.667 368.833,618.333 372.5,618C 364.819,617.109 357.152,616.109 349.5,615C 351.833,614.667 354.167,614.333 356.5,614C 348.819,613.109 341.152,612.109 333.5,611C 337.167,610.667 340.833,610.333 344.5,610C 336.819,609.109 329.152,608.109 321.5,607C 323.833,606.667 326.167,606.333 328.5,606C 320.819,605.109 313.152,604.109 305.5,603C 309.167,602.667 312.833,602.333 316.5,602C 311.5,601.667 306.5,601.333 301.5,601C 302.5,600.667 303.5,600.333 304.5,600C 300.833,599.667 297.167,599.333 293.5,599C 295.833,598.667 298.167,598.333 300.5,598C 292.819,597.109 285.152,596.109 277.5,595C 280.036,594.814 282.369,594.314 284.5,593.5C 285.833,593.5 287.167,593.5 288.5,593.5C 296.846,594.391 305.18,595.391 313.5,596.5C 317.881,598.211 322.547,598.877 327.5,598.5C 329.167,598.5 330.833,598.5 332.5,598.5C 343.659,599.659 354.992,599.826 366.5,599C 375.071,598.433 383.405,597.267 391.5,595.5C 400.496,594.557 409.496,593.391 418.5,592C 421.191,591.844 423.524,591.011 425.5,589.5C 429.163,589.048 432.83,588.548 436.5,588C 437.056,587.617 437.389,587.117 437.5,586.5 Z"/></g>
<g><path style="opacity:1" fill="#af8b40" d="M 437.5,586.5 C 437.389,587.117 437.056,587.617 436.5,588C 432.83,588.548 429.163,589.048 425.5,589.5C 429.2,587.755 433.2,586.755 437.5,586.5 Z"/></g>
<g><path style="opacity:1" fill="#c49d47" d="M 255.5,586.5 C 266.535,589.239 277.535,591.572 288.5,593.5C 287.167,593.5 285.833,593.5 284.5,593.5C 276.822,592.888 269.155,592.054 261.5,591C 262.167,590.667 262.833,590.333 263.5,590C 260.428,589.422 257.761,588.255 255.5,586.5 Z"/></g>
<g><path style="opacity:1" fill="#b38e48" d="M 528.5,585.5 C 522.407,589.542 515.74,592.542 508.5,594.5C 514.719,590.75 521.386,587.75 528.5,585.5 Z"/></g>
<g><path style="opacity:1" fill="#7f5e28" d="M 37.5,418.5 C 38.5,418.5 39.5,418.5 40.5,418.5C 44.9595,450.672 51.7928,482.339 61,513.5C 69.4093,542.292 80.576,569.625 94.5,595.5C 100.052,599.031 105.718,602.531 111.5,606C 142.281,620.865 173.947,633.031 206.5,642.5C 208.277,643.6 210.277,644.434 212.5,645C 211.584,645.278 210.918,645.778 210.5,646.5C 203.73,645.243 197.063,643.577 190.5,641.5C 185.776,640.37 181.109,639.036 176.5,637.5C 174.491,635.935 172.157,634.935 169.5,634.5C 156.824,630.587 144.49,625.921 132.5,620.5C 132.027,619.094 131.027,618.427 129.5,618.5C 122.081,615.957 115.081,612.623 108.5,608.5C 108.027,607.094 107.027,606.427 105.5,606.5C 99.406,604.728 94.406,601.394 90.5,596.5C 90.573,594.973 89.9063,593.973 88.5,593.5C 87.6743,590.515 86.341,587.849 84.5,585.5C 84.0652,582.843 83.0652,580.509 81.5,578.5C 79.111,572.471 76.7777,566.471 74.5,560.5C 74.573,558.973 73.9063,557.973 72.5,557.5C 68.0266,544.079 63.36,530.746 58.5,517.5C 58.5905,514.848 57.9238,512.515 56.5,510.5C 56.634,508.708 56.3007,507.042 55.5,505.5C 55.3104,502.145 54.3104,499.145 52.5,496.5C 52.634,494.708 52.3007,493.042 51.5,491.5C 51.5905,488.848 50.9238,486.515 49.5,484.5C 45.9766,471.365 43.3099,458.031 41.5,444.5C 41.0217,439.273 40.0217,434.273 38.5,429.5C 38.5,429.167 38.5,428.833 38.5,428.5C 38.1667,425.167 37.8333,421.833 37.5,418.5 Z"/></g>
<g><path style="opacity:1" fill="#dbd0be" d="M 600.5,588.5 C 600.408,590.848 599.408,592.514 597.5,593.5C 597.75,591.326 598.75,589.659 600.5,588.5 Z"/></g>
<g><path style="opacity:1" fill="#b28e42" d="M 425.5,589.5 C 423.524,591.011 421.191,591.844 418.5,592C 409.496,593.391 400.496,594.557 391.5,595.5C 402.597,592.872 413.93,590.872 425.5,589.5 Z"/></g>
<g><path style="opacity:1" fill="#bbaa90" d="M 88.5,593.5 C 89.9063,593.973 90.573,594.973 90.5,596.5C 89.0937,596.027 88.427,595.027 88.5,593.5 Z"/></g>
<g><path style="opacity:1" fill="#a5833f" d="M 313.5,596.5 C 318.414,596.362 323.081,597.028 327.5,598.5C 322.547,598.877 317.881,598.211 313.5,596.5 Z"/></g>
<g><path style="opacity:1" fill="#ab8a41" d="M 391.5,595.5 C 383.405,597.267 375.071,598.433 366.5,599C 354.992,599.826 343.659,599.659 332.5,598.5C 343.172,598.667 353.839,598.5 364.5,598C 373.455,596.638 382.455,595.804 391.5,595.5 Z"/></g>
<g><path style="opacity:1" fill="#876427" d="M 619.5,539.5 C 619.371,541.216 619.038,542.883 618.5,544.5C 618.029,546.579 617.363,548.579 616.5,550.5C 615.463,551.93 614.796,553.597 614.5,555.5C 613.148,559.176 611.815,562.843 610.5,566.5C 608.926,568.102 608.259,570.102 608.5,572.5C 604.895,577.281 602.229,582.614 600.5,588.5C 598.75,589.659 597.75,591.326 597.5,593.5C 594.836,597.016 591.503,599.85 587.5,602C 580.438,605.861 573.438,609.695 566.5,613.5C 562.948,614.791 559.614,616.458 556.5,618.5C 549.177,620.935 542.177,623.935 535.5,627.5C 533.033,627.755 531.033,628.755 529.5,630.5C 528.833,630.5 528.167,630.5 527.5,630.5C 525.597,630.796 523.93,631.463 522.5,632.5C 520.597,632.796 518.93,633.463 517.5,634.5C 516.167,634.833 514.833,635.167 513.5,635.5C 512.903,634.861 512.07,634.528 511,634.5C 506.601,636.024 502.101,637.024 497.5,637.5C 522.026,629.153 546.026,619.319 569.5,608C 576.953,603.585 584.287,599.085 591.5,594.5C 596.259,586.65 600.759,578.65 605,570.5C 607.661,561.868 610.827,553.534 614.5,545.5C 615.864,543.78 616.864,541.78 617.5,539.5C 618.257,538.227 618.923,538.227 619.5,539.5 Z"/></g>
<g><path style="opacity:1" fill="#aa9576" d="M 105.5,606.5 C 107.027,606.427 108.027,607.094 108.5,608.5C 106.973,608.573 105.973,607.906 105.5,606.5 Z"/></g>
<g><path style="opacity:1" fill="#ba954a" d="M 451.5,612.5 C 445.523,615.036 439.189,616.37 432.5,616.5C 438.55,614.422 444.884,613.089 451.5,612.5 Z"/></g>
<g><path style="opacity:1" fill="#e0d7c9" d="M 566.5,613.5 C 564.017,616.741 560.684,618.408 556.5,618.5C 559.614,616.458 562.948,614.791 566.5,613.5 Z"/></g>
<g><path style="opacity:1" fill="#beae94" d="M 129.5,618.5 C 131.027,618.427 132.027,619.094 132.5,620.5C 130.973,620.573 129.973,619.906 129.5,618.5 Z"/></g>
<g><path style="opacity:1" fill="#ba954b" d="M 408.5,621.5 C 397.789,624.123 386.789,625.456 375.5,625.5C 386.295,623.627 397.295,622.294 408.5,621.5 Z"/></g>
<g><path style="opacity:1" fill="#d8cdbb" d="M 535.5,627.5 C 533.967,629.245 531.967,630.245 529.5,630.5C 531.033,628.755 533.033,627.755 535.5,627.5 Z"/></g>
<g><path style="opacity:1" fill="#ccbea8" d="M 527.5,630.5 C 526.365,632.213 524.698,632.88 522.5,632.5C 523.93,631.463 525.597,630.796 527.5,630.5 Z"/></g>
<g><path style="opacity:1" fill="#c9bba7" d="M 169.5,634.5 C 172.157,634.935 174.491,635.935 176.5,637.5C 173.654,637.448 171.32,636.448 169.5,634.5 Z"/></g>
<g><path style="opacity:1" fill="#c7b9a3" d="M 190.5,641.5 C 197.063,643.577 203.73,645.243 210.5,646.5C 210.5,646.833 210.5,647.167 210.5,647.5C 203.279,646.867 196.612,644.867 190.5,641.5 Z"/></g>
<g><path style="opacity:1" fill="#c9b8a2" d="M 517.5,634.5 C 517.389,635.117 517.056,635.617 516.5,636C 505.294,640.014 493.96,643.514 482.5,646.5C 492.688,642.658 503.021,638.991 513.5,635.5C 514.833,635.167 516.167,634.833 517.5,634.5 Z"/></g>
<g><path style="opacity:1" fill="#c5b8a0" d="M 482.5,646.5 C 480.485,647.924 478.152,648.59 475.5,648.5C 477.515,647.076 479.848,646.41 482.5,646.5 Z"/></g>
<g><path style="opacity:1" fill="#c9baa3" d="M 475.5,648.5 C 473.485,649.924 471.152,650.59 468.5,650.5C 470.515,649.076 472.848,648.41 475.5,648.5 Z"/></g>
<g><path style="opacity:1" fill="#7f5e24" d="M 513.5,635.5 C 503.021,638.991 492.688,642.658 482.5,646.5C 479.848,646.41 477.515,647.076 475.5,648.5C 472.848,648.41 470.515,649.076 468.5,650.5C 466.102,650.259 464.102,650.926 462.5,652.5C 457.766,653.666 453.1,654.666 448.5,655.5C 445.273,655.676 442.273,656.343 439.5,657.5C 434.397,658.588 429.397,659.588 424.5,660.5C 418.546,661.715 412.546,662.715 406.5,663.5C 401.63,663.69 396.964,664.356 392.5,665.5C 392.167,665.5 391.833,665.5 391.5,665.5C 381.666,666.274 371.999,667.274 362.5,668.5C 352.852,669.245 343.185,669.578 333.5,669.5C 330.054,668.313 326.387,667.646 322.5,667.5C 309.458,666.578 296.458,665.245 283.5,663.5C 280.411,662.215 277.078,661.549 273.5,661.5C 271.095,660.232 268.428,659.565 265.5,659.5C 262.833,659.167 260.167,658.833 257.5,658.5C 255.095,657.232 252.428,656.565 249.5,656.5C 236.368,654.034 223.368,651.034 210.5,647.5C 210.5,647.167 210.5,646.833 210.5,646.5C 210.918,645.778 211.584,645.278 212.5,645C 210.277,644.434 208.277,643.6 206.5,642.5C 207.822,642.67 208.989,642.337 210,641.5C 210.772,642.849 211.939,643.682 213.5,644C 255.827,655.166 298.827,661.999 342.5,664.5C 344.5,665.833 346.5,665.833 348.5,664.5C 399.52,662.276 449.187,653.276 497.5,637.5C 502.101,637.024 506.601,636.024 511,634.5C 512.07,634.528 512.903,634.861 513.5,635.5 Z"/></g>
<g><path style="opacity:1" fill="#d7cbba" d="M 468.5,650.5 C 466.898,652.074 464.898,652.741 462.5,652.5C 464.102,650.926 466.102,650.259 468.5,650.5 Z"/></g>
<g><path style="opacity:1" fill="#d7cbba" d="M 448.5,655.5 C 448.389,656.117 448.056,656.617 447.5,657C 444.854,657.497 442.187,657.664 439.5,657.5C 442.273,656.343 445.273,655.676 448.5,655.5 Z"/></g>
<g><path style="opacity:1" fill="#ae9b7b" d="M 249.5,656.5 C 252.428,656.565 255.095,657.232 257.5,658.5C 254.505,658.706 251.838,658.04 249.5,656.5 Z"/></g>
<g><path style="opacity:1" fill="#cbbea8" d="M 439.5,657.5 C 434.927,660.018 429.927,661.018 424.5,660.5C 429.397,659.588 434.397,658.588 439.5,657.5 Z"/></g>
<g><path style="opacity:1" fill="#b19e80" d="M 265.5,659.5 C 268.428,659.565 271.095,660.232 273.5,661.5C 270.505,661.706 267.838,661.04 265.5,659.5 Z"/></g>
<g><path style="opacity:1" fill="#9e7833" d="M 322.5,626.5 C 334.15,627.269 345.817,627.602 357.5,627.5C 353.702,628.483 349.702,628.817 345.5,628.5C 345.725,640.526 345.392,652.526 344.5,664.5C 345.833,664.5 347.167,664.5 348.5,664.5C 346.5,665.833 344.5,665.833 342.5,664.5C 343.21,662.107 343.877,659.607 344.5,657C 344.208,647.59 344.208,638.09 344.5,628.5C 336.937,628.772 329.603,628.105 322.5,626.5 Z"/></g>
<g><path style="opacity:1" fill="#d4c9b9" d="M 273.5,661.5 C 277.078,661.549 280.411,662.215 283.5,663.5C 279.878,663.678 276.544,663.011 273.5,661.5 Z"/></g>
<g><path style="opacity:1" fill="#c8bba3" d="M 406.5,663.5 C 402.1,665.104 397.434,665.771 392.5,665.5C 396.964,664.356 401.63,663.69 406.5,663.5 Z"/></g>
<g><path style="opacity:1" fill="#c0af95" d="M 391.5,665.5 C 382.114,667.864 372.447,668.864 362.5,668.5C 371.999,667.274 381.666,666.274 391.5,665.5 Z"/></g>
<g><path style="opacity:1" fill="#c0b297" d="M 322.5,667.5 C 326.387,667.646 330.054,668.313 333.5,669.5C 330.482,669.665 327.482,669.498 324.5,669C 323.584,668.722 322.918,668.222 322.5,667.5 Z"/></g>
</svg>
